#N canvas -8 -8 1600 857 10;
#X obj 695 660 dac~;
#X obj 568 473 *~;
#X obj 567 429 osc~;
#X obj 558 394 mtof;
#X obj 842 461 *~;
#X obj 843 412 osc~;
#X obj 834 377 mtof;
#X obj 621 314 phasor~ 0.3;
#X obj 707 322 pink~;
#X obj 662 346 min~;
#X obj 664 382 lop~ 40;
#X obj 984 322 pink~;
#X obj 939 346 min~;
#X obj 941 382 lop~ 40;
#X msg 23 39 \; pd dsp \$1;
#X obj 23 14 tgl 15 0 empty empty empty 17 7 0 10 -262144 -1 -1 1 1
;
#X obj 701 451 min~;
#X obj 667 494 delwrite~ tbt 200;
#X obj 822 533 delread~ tbt 200;
#X obj 509 540 delread~ tbt 120;
#X obj 656 595 *~ 0.1;
#X obj 738 595 *~ 0.1;
#X obj 898 314 phasor~ 0.2;
#X obj 786 315 48;
#X obj 843 316 57;
#X obj 510 332 48;
#X obj 567 333 57;
#X connect 1 0 20 0;
#X connect 2 0 1 0;
#X connect 2 0 16 0;
#X connect 3 0 2 0;
#X connect 4 0 21 0;
#X connect 5 0 4 0;
#X connect 5 0 16 1;
#X connect 6 0 5 0;
#X connect 7 0 9 0;
#X connect 7 0 16 0;
#X connect 8 0 9 1;
#X connect 9 0 10 0;
#X connect 10 0 1 1;
#X connect 11 0 12 1;
#X connect 12 0 13 0;
#X connect 13 0 4 1;
#X connect 15 0 14 0;
#X connect 16 0 17 0;
#X connect 18 0 21 0;
#X connect 19 0 20 0;
#X connect 20 0 0 0;
#X connect 21 0 0 1;
#X connect 22 0 12 0;
#X connect 22 0 16 1;
#X connect 23 0 6 0;
#X connect 24 0 6 0;
#X connect 25 0 3 0;
#X connect 26 0 3 0;
