#N canvas 151 44 1330 775 10;
#X obj 472 901 dac~;
#X obj 233 354 mtof;
#X obj 233 382 osc~;
#X obj 183 296 48;
#X obj 421 255 phasor~ 0.3;
#X obj 482 293 min~;
#X obj 297 467 *~;
#X obj 186 356 pink~;
#X obj 632 302 mtof;
#X obj 546 477 osc~;
#X obj 761 382 min~;
#X obj 735 456 *~;
#X obj 490 452 min~;
#X obj 893 284 phasor~ 0.2;
#X obj 520 641 delwrite~ tbt 200;
#X obj 679 612 delread~ tbt 200;
#X obj 225 533 delread~ tbt 120;
#X obj 421 203 random 80;
#X obj 421 179 metro 800;
#X obj 421 227 /~ 100;
#X obj 893 224 random 80;
#X obj 893 198 metro 800;
#X obj 893 250 /~ 300;
#X obj 447 483 \$1 300;
#X obj 447 512 vline~;
#X obj 421 156 tgl 15 0 empty empty empty 17 7 0 10 -262144 -1 -1 1
1;
#X obj 893 171 tgl 15 0 empty empty empty 17 7 0 10 -262144 -1 -1 1
1;
#X obj 104 362 random 80;
#X obj 104 337 metro 800;
#X obj 104 308 tgl 15 0 empty empty empty 17 7 0 10 -262144 -1 -1 1
1;
#X obj 104 386 * 10;
#X obj 430 445 *~;
#X obj 509 364 phasor~;
#X obj 229 281 55;
#X obj 226 599 *~ 0.5;
#X obj 797 672 *~;
#X obj 182 188 random 3;
#X obj 182 211 select 0 1 2;
#X obj 206 262 37;
#X obj 484 96 delay;
#X obj 485 12 tgl 15 0 empty empty empty 17 7 0 10 -262144 -1 -1 1
1;
#X obj 575 539 mtof;
#X obj 575 565 osc~;
#X obj 251 312 17;
#X obj 348 369 phasor~ 0.5;
#X obj 328 508 delread~ ddd 600;
#X obj 416 686 *~;
#X obj 431 554 vcf~ 10;
#X obj 574 608 phasor~ 0.5;
#X obj 610 499 tgl 15 0 empty empty empty 17 7 0 10 -262144 -1 -1 1
1;
#X obj 610 524 metro 300;
#X obj 610 545 random 10;
#X obj 484 44 metro 300;
#X obj 648 388 random 80;
#X obj 648 363 metro 800;
#X obj 648 334 tgl 15 0 empty empty empty 17 7 0 10 -262144 -1 -1 1
1;
#X obj 648 422 * 10;
#X obj 717 777 *~ 0.6;
#X msg 15 36 \; pd dsp \$1;
#X obj 15 12 tgl 15 0 empty empty empty 17 7 0 10 -262144 -1 -1 0 1
;
#X obj 871 746 *~;
#X obj 870 641 vsl 15 50 0 14 0 0 empty empty empty 0 -9 0 10 -262144
-1 -1 2900 1;
#X obj 918 708 *~;
#X obj 917 614 vsl 15 50 0 9 0 0 empty empty empty 0 -9 0 10 -262144
-1 -1 1500 1;
#X obj 918 682 osc~;
#X obj 870 716 osc~;
#X obj 966 683 *~;
#X obj 963 577 vsl 15 50 0 0.5 0 0 empty empty empty 0 -9 0 10 -262144
-1 -1 1300 1;
#X obj 965 653 osc~;
#X obj 1028 662 hsl 50 15 0 0.3 0 0 empty empty empty -2 -8 0 10 -262144
-1 -1 1400 1;
#X obj 834 774 *~;
#X obj 709 864 hsl 128 15 0 0.375 0 0 empty empty empty -2 -8 0 10
-262144 -1 -1 0 1;
#X obj 573 857 *~;
#X obj 252 766 hsl 128 15 0 1 0 0 empty empty empty -2 -8 0 10 -262144
-1 -1 9700 1;
#X obj 572 763 hsl 128 15 0 1 0 0 empty empty empty -2 -8 0 10 -262144
-1 -1 9500 1;
#X obj 496 803 *~;
#X obj 439 804 *~;
#X obj 443 731 *~;
#X obj 461 702 hsl 75 15 0 10 0 0 empty empty empty -2 -8 0 10 -262144
-1 -1 7400 1;
#X obj 610 571 *~ 1;
#X obj 564 155 select 0 1 2 3 4 5 6;
#X obj 558 241 23;
#X obj 1049 46 random 5;
#X obj 1007 25 tgl 15 0 empty empty empty 17 7 0 10 -262144 -1 -1 1
1;
#X obj 986 106 metro 300;
#X obj 1108 70 select 200 3000 10000 10000 600;
#X obj 1054 171 random 5;
#X obj 26 211 random 56;
#X obj 485 72 random 6000;
#X obj 564 132 random 8;
#X obj 585 447 random 75;
#X obj 1091 199 select 1 0.1 0.2 0.3 0.5;
#X obj 1035 246 *~;
#X obj 532 266 30;
#X obj 582 260 44;
#X obj 610 228 41;
#X obj 631 252 37;
#X obj 675 231 29;
#X obj 192 703 delwrite~ ddd 6000;
#X obj 753 240 52;
#X obj 482 322 lop~;
#X obj 897 471 lop~ 300;
#X obj 761 408 lop~ 60;
#X obj 709 231 49;
#X connect 1 0 2 0;
#X connect 1 0 44 0;
#X connect 2 0 6 0;
#X connect 2 0 12 0;
#X connect 2 0 98 0;
#X connect 3 0 1 0;
#X connect 4 0 5 0;
#X connect 4 0 12 0;
#X connect 5 0 100 0;
#X connect 6 0 76 0;
#X connect 7 0 2 0;
#X connect 8 0 92 0;
#X connect 9 0 11 0;
#X connect 9 0 12 1;
#X connect 9 0 14 0;
#X connect 9 0 98 0;
#X connect 10 0 102 0;
#X connect 11 0 75 0;
#X connect 12 0 14 0;
#X connect 13 0 10 0;
#X connect 13 0 12 1;
#X connect 13 0 101 0;
#X connect 15 0 35 0;
#X connect 15 0 75 0;
#X connect 16 0 34 0;
#X connect 16 0 76 0;
#X connect 17 0 19 0;
#X connect 18 0 17 0;
#X connect 19 0 4 0;
#X connect 20 0 22 0;
#X connect 21 0 20 0;
#X connect 22 0 13 0;
#X connect 23 0 24 0;
#X connect 24 0 47 1;
#X connect 25 0 18 0;
#X connect 26 0 21 0;
#X connect 27 0 30 0;
#X connect 28 0 27 0;
#X connect 29 0 28 0;
#X connect 30 0 23 0;
#X connect 31 0 47 0;
#X connect 31 0 98 0;
#X connect 32 0 31 1;
#X connect 33 0 1 0;
#X connect 34 0 76 0;
#X connect 35 0 57 0;
#X connect 36 0 37 0;
#X connect 37 0 3 0;
#X connect 37 1 38 0;
#X connect 37 2 33 0;
#X connect 37 3 43 0;
#X connect 38 0 1 0;
#X connect 39 0 89 0;
#X connect 40 0 52 0;
#X connect 41 0 42 0;
#X connect 42 0 14 0;
#X connect 42 0 48 0;
#X connect 42 0 98 0;
#X connect 43 0 1 0;
#X connect 44 0 31 0;
#X connect 45 0 46 0;
#X connect 46 0 77 0;
#X connect 47 0 14 0;
#X connect 47 0 46 1;
#X connect 48 0 98 0;
#X connect 49 0 50 0;
#X connect 50 0 51 0;
#X connect 51 0 79 0;
#X connect 52 0 36 0;
#X connect 52 0 87 0;
#X connect 52 0 88 0;
#X connect 53 0 56 0;
#X connect 54 0 53 0;
#X connect 55 0 54 0;
#X connect 56 0 90 0;
#X connect 57 0 14 0;
#X connect 59 0 58 0;
#X connect 60 0 70 1;
#X connect 61 0 65 0;
#X connect 63 0 64 0;
#X connect 64 0 62 0;
#X connect 64 0 60 1;
#X connect 65 0 60 0;
#X connect 67 0 68 0;
#X connect 68 0 66 0;
#X connect 68 0 64 0;
#X connect 69 0 66 1;
#X connect 70 0 100 0;
#X connect 71 0 72 1;
#X connect 72 0 0 1;
#X connect 72 0 0 0;
#X connect 75 0 72 0;
#X connect 76 0 72 0;
#X connect 77 0 75 0;
#X connect 77 0 76 0;
#X connect 78 0 77 1;
#X connect 78 0 47 2;
#X connect 79 0 48 0;
#X connect 80 0 93 0;
#X connect 80 1 81 0;
#X connect 80 2 94 0;
#X connect 80 3 95 0;
#X connect 80 4 96 0;
#X connect 80 5 97 0;
#X connect 80 6 103 0;
#X connect 80 7 99 0;
#X connect 81 0 8 0;
#X connect 82 0 85 0;
#X connect 83 0 84 0;
#X connect 83 0 82 0;
#X connect 84 0 86 0;
#X connect 84 0 82 0;
#X connect 85 0 84 1;
#X connect 85 1 84 1;
#X connect 85 2 84 1;
#X connect 85 3 84 1;
#X connect 85 4 84 1;
#X connect 85 5 84 1;
#X connect 86 0 91 0;
#X connect 87 0 1 0;
#X connect 88 0 39 0;
#X connect 89 0 80 0;
#X connect 90 0 41 0;
#X connect 91 0 92 1;
#X connect 91 1 92 1;
#X connect 91 2 92 1;
#X connect 91 3 92 1;
#X connect 91 4 92 1;
#X connect 91 5 92 1;
#X connect 92 0 9 0;
#X connect 93 0 8 0;
#X connect 94 0 8 0;
#X connect 95 0 8 0;
#X connect 96 0 8 0;
#X connect 97 0 8 0;
#X connect 99 0 8 0;
#X connect 100 0 32 0;
#X connect 101 0 35 1;
#X connect 102 0 11 1;
#X connect 103 0 8 0;
