#N canvas 20 0 1284 861 10;
#X obj 371 349 mtof;
#X obj 601 688 dac~;
#X obj 359 122 metro 500;
#X obj 39 148 counter;
#X floatatom 544 175 5 0 0 0 - - -;
#X obj 40 123 bng 15 250 50 0 empty empty empty 17 7 0 10 -262144 -1
-1;
#X obj 359 97 tgl 15 0 empty empty empty 17 7 0 10 -262144 -1 -1 1
1;
#X obj 322 250 sel 0 1 2 3 4 5 6 7;
#X obj 556 198 % 8;
#X floatatom 360 221 5 0 0 0 - - -;
#X obj 544 153 drunk 0 8;
#X floatatom 410 100 5 0 0 0 - - -;
#X obj 411 12 tgl 15 0 empty empty empty 17 7 0 10 -262144 -1 -1 1
1;
#X obj 410 30 metro 5000;
#X obj 542 360 pink~;
#X obj 788 324 min~;
#X obj 750 274 tgl 15 0 empty empty empty 17 7 0 10 -262144 -1 -1 1
1;
#X obj 789 372 osc~;
#X msg 15 36 \; pd dsp \$1;
#X obj 788 349 line~ 50;
#X obj 750 294 phasor~ 50;
#X obj 15 12 tgl 15 0 empty empty empty 17 7 0 10 -262144 -1 -1 1 1
;
#X obj 606 368 *~;
#X obj 605 260 vsl 15 50 0 14 0 0 empty empty empty 0 -9 0 10 -262144
-1 -1 3550 1;
#X obj 605 338 osc~;
#X obj 658 363 *~;
#X obj 643 238 vsl 15 50 0 14 0 0 empty empty empty 0 -9 0 10 -262144
-1 -1 2850 1;
#X obj 645 308 osc~;
#X obj 611 207 tgl 15 0 empty empty empty 17 7 0 10 -262144 -1 -1 1
1;
#X obj 706 262 vsl 15 50 0 0.5 0 0 empty empty empty 0 -9 0 10 -262144
-1 -1 2500 1;
#X obj 708 528 vsl 15 50 0 1 0 0 empty empty empty 0 -9 0 10 -262144
-1 -1 3700 1;
#X obj 602 581 *~;
#X obj 371 381 osc~;
#X obj 574 426 phasor~;
#X obj 410 53 random 20;
#X obj 410 77 * 100;
#X obj 660 617 *~;
#X msg 246 289 99, f 2;
#X msg 279 290 66;
#X msg 318 290 77;
#X msg 352 288 88;
#X msg 390 287 94;
#X msg 425 288 76;
#X msg 461 290 34;
#X msg 502 288 76;
#X connect 0 0 32 0;
#X connect 2 0 10 0;
#X connect 4 0 8 0;
#X connect 6 0 2 0;
#X connect 7 0 37 0;
#X connect 7 1 38 0;
#X connect 7 2 39 0;
#X connect 7 3 40 0;
#X connect 7 4 41 0;
#X connect 7 5 42 0;
#X connect 7 6 43 0;
#X connect 7 7 44 0;
#X connect 8 0 9 0;
#X connect 9 0 7 0;
#X connect 10 0 4 0;
#X connect 11 0 2 1;
#X connect 12 0 13 0;
#X connect 13 0 34 0;
#X connect 14 0 33 0;
#X connect 15 0 19 0;
#X connect 16 0 20 0;
#X connect 17 0 33 0;
#X connect 19 0 17 0;
#X connect 20 0 15 0;
#X connect 21 0 18 0;
#X connect 22 0 33 0;
#X connect 23 0 24 1;
#X connect 24 0 22 0;
#X connect 25 0 22 1;
#X connect 25 0 31 0;
#X connect 25 0 31 1;
#X connect 26 0 27 0;
#X connect 27 0 25 0;
#X connect 28 0 23 0;
#X connect 28 0 26 0;
#X connect 29 0 25 1;
#X connect 30 0 36 1;
#X connect 31 0 36 0;
#X connect 32 0 31 0;
#X connect 33 0 31 0;
#X connect 33 0 31 1;
#X connect 34 0 35 0;
#X connect 35 0 11 0;
#X connect 36 0 1 0;
#X connect 36 0 1 1;
#X connect 37 0 0 0;
#X connect 38 0 0 0;
#X connect 39 0 0 0;
#X connect 40 0 0 0;
#X connect 41 0 0 0;
#X connect 42 0 0 0;
#X connect 43 0 0 0;
#X connect 44 0 0 0;
