#N canvas -8 -8 1600 857 10;
#X obj 760 740 dac~;
#X obj 570 407 *~;
#X obj 569 363 osc~;
#X obj 560 328 mtof;
#X obj 1033 405 *~;
#X obj 1034 356 osc~;
#X obj 1025 321 mtof;
#X obj 709 256 pink~;
#X obj 664 280 min~;
#X obj 666 316 lop~ 40;
#X obj 1266 317 pink~;
#X obj 1221 341 min~;
#X obj 1223 377 lop~ 40;
#X obj 703 385 min~;
#X obj 781 465 delwrite~ tbt 200;
#X obj 983 550 delread~ tbt 200;
#X obj 539 521 delread~ tbt 120;
#X obj 1079 632 *~;
#X obj 977 645 *~ 0.8;
#X obj 768 257 tgl 15 0 empty empty empty 17 7 0 10 -262144 -1 -1 1
1;
#X obj 768 279 metro 800;
#X obj 768 303 random 80;
#X obj 623 158 tgl 15 0 empty empty empty 17 7 0 10 -262144 -1 -1 1
1;
#X obj 623 180 metro 800;
#X obj 623 204 random 80;
#X obj 1180 218 tgl 15 0 empty empty empty 17 7 0 10 -262144 -1 -1
1 1;
#X obj 1180 240 metro 800;
#X obj 1180 264 random 80;
#X obj 1180 286 / 100;
#X obj 623 226 / 300;
#X obj 800 391 vline~;
#X obj 780 438 vcf~ 10;
#X msg 782 359 \$1 300;
#X obj 768 325 * 10;
#X obj 397 489 delwrite~ ddd 600;
#X obj 463 669 delread~ ddd 600;
#X obj 616 756 *~;
#X obj 633 425 phasor~;
#X obj 912 425 phasor~;
#X obj 773 412 *~;
#X obj 732 26 tgl 15 0 empty empty empty 17 7 0 10 -262144 -1 -1 1
1;
#X obj 732 46 metro 3000;
#X obj 732 88 delay;
#X obj 466 163 random 4;
#X obj 478 198 select 0 1 2 3;
#X obj 862 774 vd~ ddd;
#X obj 895 746 vline~;
#X obj 887 654 tgl 15 0 empty empty empty 17 7 0 10 -262144 -1 -1 1
1;
#X obj 887 676 metro 800;
#X obj 887 700 random 80;
#X obj 830 803 *~ 0.8;
#X obj 894 722 * 20;
#X msg 501 283 31;
#X msg 1062 257 47;
#X msg 23 39 \; pd dsp \$1;
#X obj 23 14 tgl 15 0 empty empty empty 17 7 0 10 -262144 -1 -1 0 1
;
#X msg 517 251 48;
#X msg 553 274 53;
#X msg 983 240 40;
#X msg 1016 237 69;
#X msg 587 263 60;
#X msg 960 265 35;
#X obj 941 2 tgl 15 0 empty empty empty 17 7 0 10 -262144 -1 -1 1 1
;
#X obj 939 50 * 64440;
#X obj 939 29 phasor~;
#X obj 623 248 phasor~ 0.3;
#X obj 1180 309 phasor~ 0.2;
#X obj 940 73 expr~ ($v1%450<7500)*sin($v1/4500%7500)*0.12 \; ($v1*(sin(0.5>1)/sin(6600%9900)))*0.2
\;;
#X obj 395 393 vd~ tbtd;
#X obj 403 365 vline~;
#X obj 394 262 tgl 15 0 empty empty empty 17 7 0 10 -262144 -1 -1 1
1;
#X obj 394 284 metro 800;
#X obj 394 308 random 80;
#X obj 401 330 * 10;
#X obj 884 386 delread~ tbtd 300;
#X obj 1327 150 delwrite~ tbtd 600;
#X obj 396 439 delread~ tbtd 2000;
#X obj 764 529 vsl 15 128 0 0.25 0 0 empty empty empty 0 -9 0 10 -262144
-1 -1 2700 1;
#X obj 831 636 *~;
#X obj 715 633 *~;
#X obj 731 700 hip~ 1;
#X obj 732 67 random 600;
#X obj 649 663 /~ 10;
#X msg 1107 245 81;
#X obj 950 159 random 5;
#X obj 961 194 select 0 1 2 3 4;
#X connect 1 0 34 0;
#X connect 1 0 37 0;
#X connect 1 0 79 0;
#X connect 2 0 1 0;
#X connect 2 0 13 0;
#X connect 3 0 2 0;
#X connect 4 0 38 0;
#X connect 4 0 78 0;
#X connect 5 0 4 0;
#X connect 5 0 13 1;
#X connect 6 0 5 0;
#X connect 7 0 8 1;
#X connect 8 0 9 0;
#X connect 9 0 1 1;
#X connect 10 0 11 1;
#X connect 11 0 12 0;
#X connect 12 0 4 1;
#X connect 12 0 17 1;
#X connect 13 0 14 0;
#X connect 13 0 31 0;
#X connect 15 0 17 0;
#X connect 15 0 78 0;
#X connect 16 0 79 0;
#X connect 17 0 18 0;
#X connect 18 0 14 0;
#X connect 19 0 20 0;
#X connect 20 0 21 0;
#X connect 21 0 33 0;
#X connect 22 0 23 0;
#X connect 23 0 24 0;
#X connect 24 0 29 0;
#X connect 25 0 26 0;
#X connect 26 0 27 0;
#X connect 27 0 28 0;
#X connect 28 0 66 0;
#X connect 29 0 65 0;
#X connect 30 0 31 1;
#X connect 31 0 14 0;
#X connect 31 0 34 0;
#X connect 31 0 82 0;
#X connect 32 0 30 0;
#X connect 33 0 32 0;
#X connect 35 0 36 0;
#X connect 36 0 80 0;
#X connect 37 0 39 0;
#X connect 38 0 39 0;
#X connect 39 0 31 0;
#X connect 40 0 41 0;
#X connect 41 0 81 0;
#X connect 42 0 43 0;
#X connect 42 0 84 0;
#X connect 43 0 44 0;
#X connect 44 0 52 0;
#X connect 44 1 56 0;
#X connect 44 2 57 0;
#X connect 44 3 60 0;
#X connect 45 0 50 0;
#X connect 45 0 78 0;
#X connect 45 0 79 0;
#X connect 46 0 45 0;
#X connect 47 0 48 0;
#X connect 48 0 49 0;
#X connect 49 0 51 0;
#X connect 50 0 34 0;
#X connect 50 0 14 0;
#X connect 51 0 46 0;
#X connect 52 0 3 0;
#X connect 53 0 6 0;
#X connect 55 0 54 0;
#X connect 56 0 3 0;
#X connect 57 0 3 0;
#X connect 58 0 6 0;
#X connect 59 0 6 0;
#X connect 60 0 3 0;
#X connect 61 0 6 0;
#X connect 62 0 64 0;
#X connect 63 0 67 0;
#X connect 64 0 63 0;
#X connect 65 0 8 0;
#X connect 65 0 13 0;
#X connect 66 0 11 0;
#X connect 66 0 13 1;
#X connect 67 0 75 0;
#X connect 67 1 75 0;
#X connect 69 0 68 0;
#X connect 70 0 71 0;
#X connect 71 0 72 0;
#X connect 72 0 73 0;
#X connect 73 0 69 0;
#X connect 74 0 38 0;
#X connect 76 0 34 0;
#X connect 76 0 68 0;
#X connect 77 0 78 1;
#X connect 77 0 79 1;
#X connect 78 0 80 0;
#X connect 79 0 80 0;
#X connect 80 0 0 0;
#X connect 80 0 0 1;
#X connect 81 0 42 0;
#X connect 82 0 36 1;
#X connect 84 0 85 0;
#X connect 85 0 61 0;
#X connect 85 1 58 0;
#X connect 85 2 59 0;
#X connect 85 3 53 0;
#X connect 85 4 83 0;
