#N canvas -8 -8 1600 857 10;
#X obj 778 684 dac~;
#X obj 568 473 *~;
#X obj 567 429 osc~;
#X obj 558 394 mtof;
#X obj 1031 471 *~;
#X obj 1032 422 osc~;
#X obj 1023 387 mtof;
#X obj 621 314 phasor~ 0.3;
#X obj 707 322 pink~;
#X obj 662 346 min~;
#X obj 664 382 lop~ 40;
#X obj 1264 383 pink~;
#X obj 1219 407 min~;
#X obj 1221 443 lop~ 40;
#X obj 701 451 min~;
#X obj 779 531 delwrite~ tbt 200;
#X obj 983 569 delread~ tbt 200;
#X obj 521 563 delread~ tbt 120;
#X obj 1178 375 phasor~ 0.2;
#X obj 1079 632 *~;
#X obj 977 645 *~ 0.8;
#X obj 766 323 tgl 15 0 empty empty empty 17 7 0 10 -262144 -1 -1 1
1;
#X obj 766 345 metro 800;
#X obj 766 369 random 80;
#X obj 621 224 tgl 15 0 empty empty empty 17 7 0 10 -262144 -1 -1 1
1;
#X obj 621 246 metro 800;
#X obj 621 270 random 80;
#X obj 1178 284 tgl 15 0 empty empty empty 17 7 0 10 -262144 -1 -1
1 1;
#X obj 1178 306 metro 800;
#X obj 1178 330 random 80;
#X obj 1178 352 / 100;
#X obj 621 292 / 300;
#X obj 798 457 vline~;
#X obj 778 504 vcf~ 10;
#X msg 780 425 \$1 300;
#X obj 766 391 * 10;
#X obj 395 555 delwrite~ ddd 600;
#X obj 520 618 delread~ ddd 600;
#X obj 616 756 *~;
#X obj 631 491 phasor~;
#X obj 910 491 phasor~;
#X obj 771 478 *~;
#X obj 947 225 random 4;
#X obj 959 260 select 0 1 2 3;
#X obj 730 92 tgl 15 0 empty empty empty 17 7 0 10 -262144 -1 -1 1
1;
#X obj 730 112 metro 3000;
#X obj 730 133 random 6000;
#X obj 730 154 delay;
#X obj 464 229 random 4;
#X obj 476 264 select 0 1 2 3;
#X obj 884 779 vd~ ddd;
#X obj 895 746 vline~;
#X obj 887 654 tgl 15 0 empty empty empty 17 7 0 10 -262144 -1 -1 1
1;
#X obj 887 676 metro 800;
#X obj 887 700 random 80;
#X obj 830 803 *~ 0.8;
#X obj 894 722 * 20;
#X msg 499 349 31;
#X msg 1047 322 47;
#X obj 715 633 *~ 0.2;
#X obj 831 636 *~ 0.2;
#X msg 23 39 \; pd dsp \$1;
#X obj 23 14 tgl 15 0 empty empty empty 17 7 0 10 -262144 -1 -1 0 1
;
#X msg 515 317 48;
#X msg 551 340 53;
#X msg 991 304 40;
#X msg 1019 304 69;
#X msg 585 329 60;
#X msg 982 333 35;
#X obj 1034 699 tgl 15 0 empty empty empty 17 7 0 10 -262144 -1 -1
1 1;
#X obj 1032 747 * 64440;
#X obj 1032 726 phasor~;
#X obj 1033 770 expr~ ($v1%450<7500)*sin($v1/4500%7500)*0.12 \;;
#X connect 1 0 36 0;
#X connect 1 0 39 0;
#X connect 1 0 59 0;
#X connect 2 0 1 0;
#X connect 2 0 14 0;
#X connect 3 0 2 0;
#X connect 4 0 40 0;
#X connect 4 0 60 0;
#X connect 5 0 4 0;
#X connect 5 0 14 1;
#X connect 6 0 5 0;
#X connect 7 0 9 0;
#X connect 7 0 14 0;
#X connect 8 0 9 1;
#X connect 9 0 10 0;
#X connect 10 0 1 1;
#X connect 11 0 12 1;
#X connect 12 0 13 0;
#X connect 13 0 4 1;
#X connect 13 0 19 1;
#X connect 14 0 15 0;
#X connect 14 0 33 0;
#X connect 16 0 19 0;
#X connect 16 0 60 0;
#X connect 17 0 59 0;
#X connect 18 0 12 0;
#X connect 18 0 14 1;
#X connect 19 0 20 0;
#X connect 20 0 15 0;
#X connect 21 0 22 0;
#X connect 22 0 23 0;
#X connect 23 0 35 0;
#X connect 24 0 25 0;
#X connect 25 0 26 0;
#X connect 26 0 31 0;
#X connect 27 0 28 0;
#X connect 28 0 29 0;
#X connect 29 0 30 0;
#X connect 30 0 18 0;
#X connect 31 0 7 0;
#X connect 32 0 33 1;
#X connect 33 0 38 1;
#X connect 33 0 15 0;
#X connect 33 0 36 0;
#X connect 34 0 32 0;
#X connect 35 0 34 0;
#X connect 37 0 38 0;
#X connect 38 0 0 0;
#X connect 38 0 0 1;
#X connect 39 0 41 0;
#X connect 40 0 41 0;
#X connect 41 0 33 0;
#X connect 42 0 43 0;
#X connect 43 0 68 0;
#X connect 43 1 65 0;
#X connect 43 2 66 0;
#X connect 43 3 58 0;
#X connect 44 0 45 0;
#X connect 45 0 46 0;
#X connect 46 0 47 0;
#X connect 47 0 42 0;
#X connect 47 0 48 0;
#X connect 48 0 49 0;
#X connect 49 0 57 0;
#X connect 49 1 63 0;
#X connect 49 2 64 0;
#X connect 49 3 67 0;
#X connect 50 0 55 0;
#X connect 50 0 60 0;
#X connect 50 0 59 0;
#X connect 51 0 50 0;
#X connect 52 0 53 0;
#X connect 53 0 54 0;
#X connect 54 0 56 0;
#X connect 55 0 36 0;
#X connect 55 0 15 0;
#X connect 56 0 51 0;
#X connect 57 0 3 0;
#X connect 58 0 6 0;
#X connect 59 0 0 0;
#X connect 60 0 0 1;
#X connect 62 0 61 0;
#X connect 63 0 3 0;
#X connect 64 0 3 0;
#X connect 65 0 6 0;
#X connect 66 0 6 0;
#X connect 67 0 3 0;
#X connect 68 0 6 0;
#X connect 69 0 71 0;
#X connect 70 0 72 0;
#X connect 71 0 70 0;
#X connect 72 0 50 0;
#X connect 72 0 55 0;
