#N canvas 1958 33 989 950 10;
#X obj 201 200 t b b b;
#X obj 200 156 bng 15 250 50 0 empty empty empty 17 7 0 10 -262144
-1 -1;
#X obj 193 320 metro;
#X msg 220 227 60000;
#X obj 220 252 /;
#X obj 220 279 i;
#X obj 284 133 loadbang;
#X msg 284 199 60, f 2;
#X floatatom 275 228 5 0 0 0 - - -;
#X floatatom 275 294 5 0 0 0 - - -;
#X msg 155 156 0;
#X obj 197 363 i;
#X obj 237 364 + 1;
#X floatatom 196 392 5 0 0 0 - - -;
#X floatatom 140 340 5 0 0 0 - - -;
#X obj 196 423 % 8;
#X floatatom 196 449 5 0 0 0 - - -;
#X msg 246 330 0;
#X connect 0 0 2 0;
#X connect 0 1 3 0;
#X connect 0 2 8 0;
#X connect 1 0 0 0;
#X connect 2 0 11 0;
#X connect 2 0 14 0;
#X connect 3 0 4 0;
#X connect 4 0 5 0;
#X connect 5 0 2 1;
#X connect 5 0 9 0;
#X connect 6 0 7 0;
#X connect 7 0 8 0;
#X connect 8 0 4 1;
#X connect 10 0 2 0;
#X connect 11 0 12 0;
#X connect 11 0 13 0;
#X connect 12 0 11 1;
#X connect 13 0 15 0;
#X connect 15 0 16 0;
#X connect 17 0 11 1;
