#N canvas 643 138 814 624 10;
#X obj 40 240 *~ 1;
#X obj 40 282 dac~;
#X obj 38 29 phasor~ 0.075;
#X obj 39 49 *~ 64000;
#X obj 173 49 *~ 64000;
#X obj 39 72 expr~ ($v1%400<7500)*sin($v1/450%7500)*0.12 \; ($v1%500)*($v1/200%15)*(sin($v1*0.0005))*0.15
\; sin($v1*0.33)*($v1*1.125>1.75)*.10 \; sin(($v1*0.123)+sin($v1*0.123))*sin(($v1/1000%80)*($v1/1500%500))*0.125
\; sin($v1%25*($v1/250%66))*sin($v1%150*($v1%1500<1000))*0.25 \;;
#X obj 173 26 pink~ 0.00025;
#X connect 0 0 1 0;
#X connect 0 0 1 1;
#X connect 2 0 3 0;
#X connect 3 0 5 0;
#X connect 5 0 0 0;
#X connect 5 1 0 0;
#X connect 5 2 0 0;
#X connect 5 3 0 0;
#X connect 5 4 0 0;
#X connect 6 0 4 0;
