#N canvas 1001 244 450 505 10;
#X obj 53 45 key;
#X obj 20 88 mtof;
#X floatatom 88 87 5 0 0 0 - - -;
#X obj 54 100 bng 15 250 50 0 empty empty empty 17 7 0 10 -262144 -1
-1;
#X obj 20 205 osc~;
#X obj 148 42 keyup;
#X floatatom 208 70 5 0 0 0 - - -;
#X obj 148 142 bng 15 250 50 0 empty empty empty 17 7 0 10 -262144
-1 -1;
#X obj 54 232 pack 0 50;
#X floatatom 106 208 5 0 0 0 - - -;
#X obj 54 253 line~;
#X obj 21 296 *~;
#X obj 20 351 dac~;
#X msg 54 120 1;
#X msg 148 162 0;
#X connect 0 0 1 0;
#X connect 0 0 2 0;
#X connect 0 0 3 0;
#X connect 1 0 4 0;
#X connect 3 0 13 0;
#X connect 4 0 11 0;
#X connect 5 0 6 0;
#X connect 5 0 7 0;
#X connect 7 0 14 0;
#X connect 8 0 10 0;
#X connect 9 0 8 1;
#X connect 10 0 11 1;
#X connect 11 0 12 0;
#X connect 11 0 12 1;
#X connect 13 0 8 0;
#X connect 14 0 8 0;
