#N canvas 0 38 1024 692 12;
#X obj -57 628 dac~;
#X obj 412 21 hsl 460 30 40 1000 0 0 empty empty empty -2 -8 0 10 -228856
-1 -1 0 1;
#X obj 442 93 hsl 250 30 30 200 0 0 empty empty empty -2 -8 0 10 -262144
-1 -1 1465 1;
#X obj 749 203 vradio 60 1 0 6 empty empty empty 0 -8 0 10 -204786
-13381 -13330 5;
#X obj 443 134 hsl 250 30 30 200 0 0 empty empty empty -2 -8 0 10 -262144
-1 -1 2929 1;
#X obj 442 174 hsl 250 30 30 200 0 0 empty empty empty -2 -8 0 10 -262144
-1 -1 4394 1;
#X obj 443 214 hsl 250 30 30 200 0 0 empty empty empty -2 -8 0 10 -262144
-1 -1 5859 1;
#X obj 443 253 hsl 250 30 30 200 0 0 empty empty empty -2 -8 0 10 -262144
-1 -1 7324 1;
#X obj 443 294 hsl 250 30 30 200 0 0 empty empty empty -2 -8 0 10 -262144
-1 -1 8788 1;
#X obj 443 334 hsl 250 30 30 200 0 0 empty empty empty -2 -8 0 10 -262144
-1 -1 10253 1;
#X obj 444 374 hsl 250 30 30 200 0 0 empty empty empty -2 -8 0 10 -262144
-1 -1 13182 1;
#X obj 442 415 hsl 250 30 30 200 0 0 empty empty empty -2 -8 0 10 -262144
-1 -1 16112 1;
#X obj 443 454 hsl 250 30 30 200 0 0 empty empty empty -2 -8 0 10 -262144
-1 -1 19041 1;
#X obj 442 493 hsl 250 30 30 200 0 0 empty empty empty -2 -8 0 10 -262144
-1 -1 21971 1;
#X obj 443 532 hsl 250 30 30 200 0 0 empty empty empty -2 -8 0 10 -262144
-1 -1 24900 1;
#X obj 704 89 vradio 40 1 1 12 empty empty empty 0 -8 0 10 -203904
-1 -1 10;
#N canvas 213 340 450 300 (subpatch) 0;
#X obj 179 63 inlet;
#X obj 172 158 outlet;
#X connect 0 0 1 0;
#X restore 752 571 pd;
#X text -39 116 POWER;
#X text -62 528 VOLUMEN;
#X text 756 173 ARMONIZADOR;
#N canvas 213 340 450 300 (subpatch) 0;
#X obj 179 63 inlet;
#X obj 172 158 outlet;
#X obj 190 107 bng 15 250 50 0 empty empty empty 17 7 0 10 -262144
-1 -1;
#X obj 287 56 inlet;
#X obj 280 151 outlet;
#X connect 0 0 2 0;
#X connect 2 0 1 0;
#X connect 3 0 4 0;
#X restore 843 182 pd;
#N canvas 213 340 450 300 (subpatch) 0;
#X obj 179 63 inlet;
#X obj 172 158 outlet;
#X connect 0 0 1 0;
#X restore 845 569 pd;
#N canvas 213 340 450 300 (subpatch) 0;
#X obj 179 63 inlet;
#X obj 172 158 outlet;
#X connect 0 0 1 0;
#X restore -19 552 pd;
#X obj 33 -13 hsl 840 30 1 10000 0 0 empty empty empty -2 -8 0 10 -228856
-1 -1 0 1;
#N canvas 0 186 450 300 (subpatch) 0;
#X obj 179 63 inlet;
#X obj 172 158 outlet;
#X connect 0 0 1 0;
#X coords 0 0 1 1 20 20 0;
#X restore 410 306 pd;
#N canvas 213 340 450 300 (subpatch) 0;
#X obj 179 63 inlet;
#X obj 172 158 outlet;
#X obj 281 64 inlet;
#X obj 274 159 outlet;
#X connect 0 0 1 0;
#X connect 2 0 3 0;
#X restore 419 570 pd;
#X obj 60 141 hradio 50 1 0 5 empty empty empty 0 -8 0 10 -66577 -262144
-228856 0;
#N canvas 363 332 450 300 (subpatch) 0;
#X obj 179 63 inlet;
#X obj 172 158 outlet;
#X obj 263 59 inlet;
#X obj 256 154 outlet;
#X obj 258 108 bng 15 250 50 0 empty empty empty 17 7 0 10 -262144
-1 -1;
#X obj 45 104 loadbang;
#X msg 103 155 0;
#X connect 0 0 1 0;
#X connect 2 0 4 0;
#X connect 4 0 3 0;
#X connect 5 0 6 0;
#X connect 6 0 1 0;
#X restore 21 529 pd;
#X obj 813 205 vsl 30 354 6 0 0 0 empty empty empty 0 -9 0 10 -204786
-13381 -1 0 1;
#N canvas 213 340 450 300 (subpatch) 0;
#X obj 179 63 inlet;
#X obj 172 158 outlet;
#X connect 0 0 1 0;
#X restore 859 563 pd;
#N canvas 213 340 450 300 (subpatch) 0;
#X obj 179 63 inlet;
#X obj 172 158 outlet;
#X connect 0 0 1 0;
#X restore -95 550 pd;
#X obj 132 316 vradio 25 1 0 6 empty empty empty 0 -8 0 10 -228856
-1 -1 0;
#X obj -80 77 nbx 5 30 -1e+037 1e+037 0 0 empty empty empty 0 -8 0
10 -262144 -1 -1 1757.23 256;
#N canvas 0 7 1024 692 Env 0;
#X obj 51 415 metro 2000;
#X obj 49 472 bng 15 250 50 0 empty empty empty 17 7 0 10 -262144 -1
-1;
#X obj 216 25 inlet;
#X floatatom 167 282 5 0 0 0 - - -;
#X obj -65 514 outlet;
#X msg 341 385 1 50 1;
#X obj 388 134 loadbang;
#X obj 250 519 envgen 257 122 1 0  ;
#X obj 519 36 inlet;
#X msg 190 378 0 25 1 25;
#X msg 268 372 0 100 1;
#X msg 414 386 1 100 0;
#X msg 137 408 1 1 0.9 50;
#X msg 503 383 0 0;
#X floatatom 286 305 5 0 0 0 - - -;
#X msg 286 194 1;
#X obj 324 225 +;
#X msg 371 195 1;
#X floatatom 334 258 5 0 0 0 - - -;
#X floatatom 334 301 5 0 0 0 - - -;
#X obj 281 342 route 1 2;
#X floatatom 450 303 5 0 0 0 - - -;
#X msg 450 192 1;
#X obj 488 223 +;
#X msg 535 193 1;
#X floatatom 495 250 5 0 0 0 - - -;
#X floatatom 498 299 5 0 0 0 - - -;
#X floatatom 665 508 5 0 0 0 - - -;
#X msg 665 397 1;
#X obj 703 428 +;
#X msg 750 398 1;
#X floatatom 713 461 5 0 0 0 - - -;
#X obj 713 482 pipe 20;
#X floatatom 713 504 5 0 0 0 - - -;
#X floatatom 779 465 5 0 0 0 - - -;
#X obj 660 545 route 1 2;
#X obj 498 277 pipe;
#X obj 334 279 pipe;
#X obj 25 324 tgl 15 0 empty empty empty 17 7 0 10 -262144 -1 -1 0
1;
#X msg 28 195 2000;
#X obj 750 255 route 1 2;
#X floatatom 772 223 5 1 2 0 - - -;
#X obj 813 199 line;
#X obj 677 341 bng 15 250 50 0 empty empty empty 17 7 0 10 -262144
-1 -1;
#X msg 823 157 1 2;
#X msg 751 164 2;
#X obj 445 340 route 1 2;
#X msg 230 91 on;
#X msg 318 86 off;
#X obj 329 34 inlet;
#X obj 392 30 inlet;
#X obj 443 38 inlet;
#X obj 577 38 inlet;
#X obj 571 477 outlet;
#X obj 777 627 outlet;
#X msg 853 393 2;
#X obj 34 48 inlet;
#X msg 90 349 0;
#X obj 598 98 route 0 1;
#X connect 0 0 1 0;
#X connect 0 0 7 0;
#X connect 2 0 47 0;
#X connect 3 0 0 1;
#X connect 3 0 36 1;
#X connect 3 0 37 1;
#X connect 3 0 53 0;
#X connect 5 0 7 0;
#X connect 6 0 17 0;
#X connect 6 0 24 0;
#X connect 6 0 39 0;
#X connect 6 0 44 0;
#X connect 6 0 45 0;
#X connect 7 0 4 0;
#X connect 8 0 3 0;
#X connect 9 0 7 0;
#X connect 10 0 7 0;
#X connect 11 0 7 0;
#X connect 12 0 7 0;
#X connect 13 0 7 0;
#X connect 13 0 57 0;
#X connect 14 0 20 0;
#X connect 15 0 16 0;
#X connect 15 0 14 0;
#X connect 15 0 38 0;
#X connect 16 0 18 0;
#X connect 17 0 16 1;
#X connect 18 0 37 0;
#X connect 19 0 20 0;
#X connect 20 0 10 0;
#X connect 20 1 5 0;
#X connect 21 0 46 0;
#X connect 22 0 23 0;
#X connect 22 0 21 0;
#X connect 23 0 25 0;
#X connect 24 0 23 1;
#X connect 25 0 36 0;
#X connect 26 0 46 0;
#X connect 27 0 35 0;
#X connect 28 0 29 0;
#X connect 28 0 27 0;
#X connect 29 0 31 0;
#X connect 30 0 29 1;
#X connect 31 0 32 0;
#X connect 32 0 33 0;
#X connect 33 0 35 0;
#X connect 34 0 32 1;
#X connect 36 0 26 0;
#X connect 37 0 19 0;
#X connect 38 0 0 0;
#X connect 39 0 3 0;
#X connect 40 0 38 0;
#X connect 40 1 43 0;
#X connect 41 0 40 0;
#X connect 42 0 41 0;
#X connect 43 0 13 0;
#X connect 44 0 42 0;
#X connect 45 0 41 0;
#X connect 46 0 11 0;
#X connect 46 1 13 0;
#X connect 47 0 15 0;
#X connect 47 0 55 0;
#X connect 48 0 22 0;
#X connect 49 0 48 0;
#X connect 50 0 55 0;
#X connect 50 0 38 0;
#X connect 50 0 58 0;
#X connect 50 0 9 0;
#X connect 51 0 13 0;
#X connect 52 0 3 0;
#X connect 55 0 54 0;
#X connect 56 0 57 0;
#X connect 57 0 38 0;
#X connect 58 1 57 0;
#X restore -124 517 pd Env;
#N canvas 0 0 450 300 (subpatch) 0;
#X obj 182 60 inlet;
#X obj 185 118 outlet;
#X obj 259 68 inlet;
#X obj 262 126 outlet;
#X connect 0 0 1 0;
#X connect 2 0 3 0;
#X coords 0 0 1 1 2 2 0;
#X restore 413 88 pd;
#X obj 423 108 bng 15 250 50 0 empty empty empty 17 7 0 10 -203904
-16662 -1;
#N canvas 0 0 450 300 (subpatch) 0;
#X obj 175 92 inlet;
#X obj 178 150 outlet;
#X obj 250 90 inlet;
#X obj 253 148 outlet;
#X connect 0 0 1 0;
#X connect 2 0 3 0;
#X coords 0 0 1 1 2 2 0;
#X restore 414 128 pd;
#X obj 424 149 bng 15 250 50 0 empty empty empty 17 7 0 10 -203904
-16662 -1;
#N canvas 0 0 450 300 (subpatch) 0;
#X obj 322 69 inlet;
#X obj 325 127 outlet;
#X obj 382 78 inlet;
#X obj 385 136 outlet;
#X connect 0 0 1 0;
#X connect 2 0 3 0;
#X coords 0 0 1 1 2 2 0;
#X restore 413 167 pd;
#X obj 423 188 bng 15 250 50 0 empty empty empty 17 7 0 10 -203904
-16662 -1;
#N canvas 0 0 450 300 (subpatch) 0;
#X obj 322 69 inlet;
#X obj 325 127 outlet;
#X obj 381 50 inlet;
#X obj 384 108 outlet;
#X connect 0 0 1 0;
#X connect 2 0 3 0;
#X coords 0 0 1 1 2 2 0;
#X restore 414 208 pd;
#X obj 424 229 bng 15 250 50 0 empty empty empty 17 7 0 10 -203904
-16662 -1;
#N canvas 0 0 450 300 (subpatch) 0;
#X obj 322 69 inlet;
#X obj 325 127 outlet;
#X obj 385 76 inlet;
#X obj 388 134 outlet;
#X connect 0 0 1 0;
#X connect 2 0 3 0;
#X coords 0 0 1 1 2 2 0;
#X restore 414 247 pd;
#X obj 424 268 bng 15 250 50 0 empty empty empty 17 7 0 10 -203904
-16662 -1;
#N canvas 0 0 450 300 (subpatch) 0;
#X obj 322 69 inlet;
#X obj 325 127 outlet;
#X obj 377 64 inlet;
#X obj 380 122 outlet;
#X connect 0 0 1 0;
#X connect 2 0 3 0;
#X coords 0 0 1 1 2 2 0;
#X restore 415 288 pd;
#X obj 425 309 bng 15 250 50 0 empty empty empty 17 7 0 10 -203904
-16662 -1;
#N canvas 0 0 450 300 (subpatch) 0;
#X obj 322 69 inlet;
#X obj 325 127 outlet;
#X obj 386 71 inlet;
#X obj 389 129 outlet;
#X connect 0 0 1 0;
#X connect 2 0 3 0;
#X coords 0 0 1 1 2 2 0;
#X restore 414 328 pd;
#X obj 424 348 bng 15 250 50 0 empty empty empty 17 7 0 10 -203904
-16662 -1;
#N canvas 0 0 450 300 (subpatch) 0;
#X obj 322 69 inlet;
#X obj 325 127 outlet;
#X obj 390 73 inlet;
#X obj 393 131 outlet;
#X connect 0 0 1 0;
#X connect 2 0 3 0;
#X coords 0 0 1 1 2 2 0;
#X restore 415 368 pd;
#X obj 425 389 bng 15 250 50 0 empty empty empty 17 7 0 10 -203904
-16662 -1;
#N canvas 0 0 450 300 (subpatch) 0;
#X obj 322 69 inlet;
#X obj 325 127 outlet;
#X obj 381 60 inlet;
#X obj 384 118 outlet;
#X connect 0 0 1 0;
#X connect 2 0 3 0;
#X coords 0 0 1 1 2 2 0;
#X restore 413 405 pd;
#X obj 423 426 bng 15 250 50 0 empty empty empty 17 7 0 10 -203904
-16662 -1;
#N canvas 0 0 450 300 (subpatch) 0;
#X obj 322 69 inlet;
#X obj 325 127 outlet;
#X obj 385 68 inlet;
#X obj 388 126 outlet;
#X connect 0 0 1 0;
#X connect 2 0 3 0;
#X coords 0 0 1 1 2 2 0;
#X restore 414 446 pd;
#X obj 424 467 bng 15 250 50 0 empty empty empty 17 7 0 10 -203904
-16662 -1;
#N canvas 0 0 450 300 (subpatch) 0;
#X obj 322 69 inlet;
#X obj 325 127 outlet;
#X obj 383 70 inlet;
#X obj 386 128 outlet;
#X connect 0 0 1 0;
#X connect 2 0 3 0;
#X coords 0 0 1 1 2 2 0;
#X restore 413 485 pd;
#X obj 423 506 bng 15 250 50 0 empty empty empty 17 7 0 10 -203904
-16662 -1;
#N canvas 0 0 450 300 (subpatch) 0;
#X obj 322 69 inlet;
#X obj 325 127 outlet;
#X obj 377 71 inlet;
#X obj 380 129 outlet;
#X connect 0 0 1 0;
#X connect 2 0 3 0;
#X coords 0 0 1 1 2 2 0;
#X restore 414 526 pd;
#X obj 424 547 bng 15 250 50 0 empty empty empty 17 7 0 10 -203904
-16662 -1;
#X msg 384 527 200;
#X msg 383 486 180;
#X msg 384 447 160;
#X msg 383 406 140;
#X msg 385 369 120;
#X msg 384 328 100;
#X msg 385 289 90;
#X msg 384 248 80;
#X msg 384 209 70;
#X msg 383 168 60;
#X msg 384 129 50;
#N canvas 0 76 1024 692 (subpatch) 0;
#X floatatom -23 46 5 0 0 0 - - -;
#X obj 9 105 select 1;
#X obj 9 70 select 0;
#X obj 7 239 select 5;
#X obj 8 206 select 4;
#X obj 9 171 select 3;
#X obj 7 137 select 2;
#X obj -24 12 inlet;
#X obj 87 503 outlet;
#X obj 143 504 outlet;
#X obj 199 508 outlet;
#X obj 251 505 outlet;
#X obj 314 509 outlet;
#X obj 374 510 outlet;
#X obj 430 510 outlet;
#X obj 484 512 outlet;
#X obj 534 514 outlet;
#X obj 591 515 outlet;
#X obj 644 517 outlet;
#X obj 700 519 outlet;
#X obj 7 269 select 6;
#X obj 7 304 select 7;
#X obj 5 336 select 8;
#X obj 7 370 select 9;
#X obj 6 405 select 10;
#X obj 5 438 select 11;
#X obj 402 57 loadbang;
#X msg 177 149 40;
#X msg 212 149 50;
#X msg 248 149 60;
#X msg 283 149 70;
#X msg 318 149 80;
#X msg 353 149 90;
#X msg 389 149 100;
#X msg 424 149 120;
#X msg 459 148 140;
#X msg 494 148 160;
#X msg 530 148 180;
#X msg 565 148 200;
#X connect 0 0 1 0;
#X connect 0 0 2 0;
#X connect 0 0 3 0;
#X connect 0 0 4 0;
#X connect 0 0 5 0;
#X connect 0 0 6 0;
#X connect 0 0 20 0;
#X connect 0 0 21 0;
#X connect 0 0 22 0;
#X connect 0 0 23 0;
#X connect 0 0 24 0;
#X connect 0 0 25 0;
#X connect 1 0 9 0;
#X connect 2 0 8 0;
#X connect 3 0 13 0;
#X connect 4 0 12 0;
#X connect 5 0 11 0;
#X connect 6 0 10 0;
#X connect 7 0 0 0;
#X connect 20 0 14 0;
#X connect 21 0 15 0;
#X connect 22 0 16 0;
#X connect 23 0 17 0;
#X connect 24 0 18 0;
#X connect 25 0 19 0;
#X connect 26 0 27 0;
#X connect 26 0 28 0;
#X connect 26 0 29 0;
#X connect 26 0 30 0;
#X connect 26 0 31 0;
#X connect 26 0 32 0;
#X connect 26 0 33 0;
#X connect 26 0 34 0;
#X connect 26 0 35 0;
#X connect 26 0 36 0;
#X connect 26 0 37 0;
#X connect 26 0 38 0;
#X connect 27 0 8 0;
#X connect 28 0 9 0;
#X connect 29 0 10 0;
#X connect 30 0 11 0;
#X connect 31 0 12 0;
#X connect 32 0 13 0;
#X connect 33 0 14 0;
#X connect 34 0 15 0;
#X connect 35 0 16 0;
#X connect 36 0 17 0;
#X connect 37 0 18 0;
#X connect 38 0 19 0;
#X restore 407 62 pd;
#X msg 383 88 40;
#N canvas 213 340 450 300 (subpatch) 0;
#X obj 179 63 inlet;
#X obj 172 158 outlet;
#X obj 250 69 inlet;
#X obj 243 164 outlet;
#X connect 0 0 1 0;
#X connect 2 0 3 0;
#X restore -126 120 pd;
#N canvas 0 76 1024 692 (subpatch) 0;
#X obj 127 40 inlet;
#X obj 113 192 outlet;
#X obj 236 191 outlet;
#X floatatom 134 89 5 0 0 0 - - -;
#X obj 150 118 route 0 1;
#X obj 260 43 inlet;
#X obj 298 194 outlet;
#X floatatom 303 90 5 0 0 0 - - -;
#X obj 319 119 route 0 1;
#X obj 351 197 outlet;
#X connect 0 0 3 0;
#X connect 3 0 4 0;
#X connect 4 0 1 0;
#X connect 4 1 2 0;
#X connect 5 0 7 0;
#X connect 7 0 8 0;
#X connect 8 0 6 0;
#X connect 8 1 9 0;
#X restore -108 474 pd;
#X obj 119 506 hradio 25 1 0 5 empty empty empty 0 -8 0 10 -228856
-1 -1 0;
#X obj 182 316 vradio 25 1 0 6 empty empty empty 0 -8 0 10 -228856
-1 -1 0;
#X obj 157 316 vradio 25 1 0 6 empty empty empty 0 -8 0 10 -228856
-1 -1 0;
#X obj 272 315 vradio 25 1 0 6 empty empty empty 0 -8 0 10 -228856
-1 -1 0;
#X obj 250 506 hradio 25 1 0 5 empty empty empty 0 -8 0 10 -228856
-1 -1 4;
#X obj 322 315 vradio 25 1 0 6 empty empty empty 0 -8 0 10 -228856
-1 -1 0;
#X obj 297 315 vradio 25 1 0 6 empty empty empty 0 -8 0 10 -228856
-1 -1 0;
#X obj 132 282 hradio 25 1 0 3 empty empty empty 0 -8 0 10 -228856
-66577 -262144 0;
#X obj 272 285 hradio 25 1 0 3 empty empty empty 0 -8 0 10 -228856
-1 -1 0;
#X obj 132 474 hradio 25 1 0 4 empty empty empty 0 -8 0 10 -228856
-1 -1 3;
#X obj 272 473 hradio 25 1 0 4 empty empty empty 0 -8 0 10 -228856
-1 -1 3;
#X obj -86 1 nbx 5 30 -1e+037 1e+037 0 0 empty empty empty 0 -8 0 10
-262144 -1 -1 180.003 256;
#X text 102 204 Ritmos;
#X text 235 368 +;
#X obj 111 98 hradio 30 1 0 2 empty empty empty 0 -8 0 10 -66577 -262144
-228856 0;
#X text 105 73 Nota Larga;
#X obj 198 98 hradio 30 1 0 2 empty empty empty 0 -8 0 10 -66577 -262144
-228856 0;
#X text 216 73 Bit;
#X obj -77 152 vradio 40 1 0 2 empty empty empty 0 -8 0 10 -261234
-16662 -1 1;
#X obj -30 153 vradio 40 1 0 2 empty empty empty 0 -8 0 10 -261234
-16662 -1 1;
#N canvas 213 340 450 300 (subpatch) 0;
#X obj 179 63 inlet;
#X obj 150 161 outlet;
#X obj 250 66 inlet;
#X obj 221 164 outlet;
#X connect 0 0 1 0;
#X connect 2 0 3 0;
#X restore -128 239 pd;
#N canvas 213 340 450 300 (subpatch) 0;
#X obj 127 40 inlet;
#X obj 113 192 outlet;
#X obj 236 191 outlet;
#X obj 260 43 inlet;
#X connect 0 0 1 0;
#X connect 3 0 2 0;
#X restore -111 562 pd;
#X text -88 -20 FRECUENCIA BASE;
#X text -72 38 TEMPO;
#N canvas 213 340 450 300 (subpatch) 0;
#X obj 179 63 inlet;
#X obj 172 158 outlet;
#X obj 242 60 inlet;
#X obj 235 155 outlet;
#X obj 292 61 inlet;
#X obj 285 156 outlet;
#X obj 344 159 outlet;
#X obj 342 60 inlet;
#X connect 0 0 1 0;
#X connect 2 0 3 0;
#X connect 4 0 5 0;
#X connect 7 0 6 0;
#X restore -107 219 pd;
#N canvas 213 340 450 300 (subpatch) 0;
#X obj 179 63 inlet;
#X obj 172 158 outlet;
#X obj 259 50 inlet;
#X obj 252 145 outlet;
#X connect 0 0 1 0;
#X connect 2 0 3 0;
#X restore -121 486 pd;
#N canvas 213 340 450 300 (subpatch) 0;
#X obj 179 63 inlet;
#X obj 172 158 outlet;
#X connect 0 0 1 0;
#X coords 0 0 1 1 85 60 0;
#X restore -102 437 pd;
#X obj -29 246 vsl 40 280 0 0.5 0 0 empty empty empty 0 -9 0 10 -261234
-66577 -1 27900 1;
#N canvas 213 340 450 300 (subpatch) 0;
#X obj 179 63 inlet;
#X obj 172 158 outlet;
#X connect 0 0 1 0;
#X restore 424 566 pd;
#X obj 88 225 hradio 40 1 0 2 empty empty empty 0 -8 0 10 -228856 -1
-1 1;
#N canvas 213 340 450 300 (subpatch) 0;
#X obj 179 63 inlet;
#X obj 172 158 outlet;
#X connect 0 0 1 0;
#X restore -115 219 pd;
#N canvas 213 340 450 300 f 0;
#X obj 166 60 inlet;
#X obj 198 209 outlet;
#X obj 257 55 inlet;
#X obj 388 207 outlet;
#X obj 50 98 route 0 1 2;
#X obj 293 105 route 0 1 2;
#X obj 68 159 bng 15 250 50 0 empty empty empty 17 7 0 10 -262144 -1
-1;
#X obj 320 145 bng 15 250 50 0 empty empty empty 17 7 0 10 -262144
-1 -1;
#X obj 68 203 outlet;
#X obj 131 207 outlet;
#X obj 265 202 outlet;
#X obj 329 206 outlet;
#X obj 127 157 bng 15 250 50 0 empty empty empty 17 7 0 10 -262144
-1 -1;
#X obj 195 164 bng 15 250 50 0 empty empty empty 17 7 0 10 -262144
-1 -1;
#X obj 261 163 bng 15 250 50 0 empty empty empty 17 7 0 10 -262144
-1 -1;
#X obj 377 165 bng 15 250 50 0 empty empty empty 17 7 0 10 -262144
-1 -1;
#X connect 0 0 4 0;
#X connect 2 0 5 0;
#X connect 4 0 6 0;
#X connect 4 1 12 0;
#X connect 4 2 13 0;
#X connect 5 0 14 0;
#X connect 5 1 7 0;
#X connect 5 2 15 0;
#X connect 6 0 8 0;
#X connect 7 0 11 0;
#X connect 12 0 9 0;
#X connect 13 0 1 0;
#X connect 14 0 10 0;
#X connect 15 0 3 0;
#X restore 13 295 pd f;
#N canvas 213 340 450 300 (subpatch) 0;
#X obj 179 63 inlet;
#X obj 172 158 outlet;
#X obj 272 66 inlet;
#X obj 265 161 outlet;
#X connect 0 0 1 0;
#X connect 2 0 3 0;
#X restore 13 308 pd;
#N canvas 213 340 450 300 (subpatch) 0;
#X obj 179 63 inlet;
#X obj 172 158 outlet;
#X obj 261 45 inlet;
#X obj 254 140 outlet;
#X connect 0 0 1 0;
#X connect 2 0 3 0;
#X restore 21 513 pd;
#N canvas -58 8 1007 675 fffffffffffffffffffffffffffffffffffffffff
0;
#X obj 83 71 route 0 1 2;
#X msg 102 108 2;
#X msg 153 110 1;
#X msg 200 109 0.5;
#X obj 83 151 *;
#X obj 92 -63 inlet;
#X floatatom 48 171 5 0 0 0 - - -;
#X obj 72 217 metro;
#X obj 255 35 loadbang;
#X obj 370 359 envgen 202 138 1 0  ;
#X msg 175 511 0.2 100 0.75 100 0.2;
#X msg 225 354 0 500 0.75 500 0;
#X msg 221 625 0 25 0.75 25;
#X msg 225 662 0 10 0.75 10;
#X msg 225 380 0 200 0.75 200 0;
#X msg 179 538 0.2 50 0.75 50 0.2;
#X msg 227 407 0 50 0.75 50 0;
#X text 182 662 100;
#X msg 225 435 0 20 0.75 20 0;
#X msg 226 462 0 10 0.75 10 0;
#X text 144 541 200;
#X msg 184 565 0.2 25 0.75 25 0.2;
#X text 157 591 50;
#X msg 191 593 0.2 10 0.75 10 0.2;
#X obj 49 543 moses;
#X msg 93 511 200;
#X obj 54 582 moses;
#X obj 63 615 moses;
#X msg 98 550 100;
#X msg 107 583 50;
#X obj 68 381 moses;
#X obj 73 420 moses;
#X obj 82 453 moses;
#X obj 88 481 moses;
#X msg 132 449 50;
#X msg 126 421 100;
#X msg 124 396 500;
#X msg 116 348 1000;
#X obj -3 71 vsl 15 128 20 2000 0 0 empty empty empty 0 -9 0 10 -262144
-1 -1 0 1;
#X floatatom -7 530 5 0 0 0 - - -;
#X floatatom 18 297 5 0 0 0 - - -;
#X obj 100 666 moses;
#X floatatom -30 650 5 0 0 0 - - -;
#X msg 144 634 100;
#X obj 103 699 moses;
#X msg 228 695 0 5 0.75 5;
#X msg 151 674 50;
#X obj -19 693 float;
#X obj -7 565 float;
#X obj 14 389 float;
#X obj -11 287 vradio 15 1 0 4 empty empty empty 0 -8 0 10 -262144
-1 -1 3;
#X msg 29 112 bang;
#X obj 674 81 route 0 1 2;
#X msg 693 118 2;
#X msg 744 120 1;
#X msg 791 119 0.5;
#X obj 674 161 *;
#X obj 139 -60 inlet;
#X floatatom 654 213 5 0 0 0 - - -;
#X obj 630 257 metro;
#X msg 552 250 0;
#X obj 775 404 loadbang;
#X obj 377 566 envgen 202 138 1 0  ;
#X msg 538 205 1;
#X msg 810 596 0.2 100 0.75 100 0.2;
#X msg 820 431 0 500 0.75 500 0;
#X msg 756 749 0 25 0.75 25;
#X msg 760 786 0 10 0.75 10;
#X msg 820 457 0 200 0.75 200 0;
#X msg 814 623 0.2 50 0.75 50 0.2;
#X msg 822 484 0 50 0.75 50 0;
#X text 721 784 100;
#X msg 820 512 0 20 0.75 20 0;
#X msg 821 539 0 10 0.75 10 0;
#X text 779 626 200;
#X msg 819 650 0.2 25 0.75 25 0.2;
#X text 792 676 50;
#X msg 826 678 0.2 10 0.75 10 0.2;
#X obj 684 628 moses;
#X msg 728 596 200;
#X obj 689 667 moses;
#X obj 602 737 moses;
#X msg 733 635 100;
#X msg 742 668 50;
#X obj 663 458 moses;
#X obj 668 497 moses;
#X obj 677 530 moses;
#X obj 683 558 moses;
#X msg 727 526 50;
#X msg 721 498 100;
#X msg 723 462 500;
#X msg 723 431 1000;
#X obj 588 81 vsl 15 128 20 2000 0 0 empty empty empty 0 -9 0 10 -262144
-1 -1 0 1;
#X floatatom 628 615 5 0 0 0 - - -;
#X floatatom 612 483 5 0 0 0 - - -;
#X obj 639 788 moses;
#X floatatom 568 766 5 0 0 0 - - -;
#X msg 683 756 100;
#X obj 642 821 moses;
#X msg 763 819 0 5 0.75 5;
#X msg 690 796 50;
#X obj 579 809 float;
#X obj 628 650 float;
#X obj 617 554 float;
#X obj 639 358 vradio 15 1 0 4 empty empty empty 0 -8 0 10 -262144
-1 -1 3;
#X msg 620 122 bang;
#X obj 399 266 hradio 15 1 0 2 empty empty empty 0 -8 0 10 -262144
-1 -1 1;
#X msg 346 534 0 0;
#X obj 392 295 route 0 1;
#X floatatom 392 -15 5 0 0 0 - - -;
#X obj 8 -53 inlet;
#X obj 560 -74 inlet;
#X obj 379 185 float;
#X obj 427 187 + 1;
#X floatatom 382 215 5 0 1 0 - - -;
#X obj 374 166 bng 15 250 50 0 empty empty empty 17 7 0 10 -262144
-1 -1;
#X floatatom 436 216 5 0 0 0 - - -;
#X obj 434 250 select;
#X msg 424 156 0;
#X msg 483 211 2;
#X obj 283 115 float;
#X floatatom 257 162 5 0 0 0 - - -;
#X floatatom 347 107 5 0 0 0 - - -;
#X obj 305 164 select;
#X floatatom 360 142 5 0 0 0 - - -;
#X obj 431 104 float;
#X floatatom 435 124 5 0 0 0 - - -;
#X floatatom 483 100 5 0 0 0 - - -;
#X obj 455 152 select;
#X floatatom 507 134 5 0 0 0 - - -;
#X obj 378 4 hradio 15 1 0 2 empty empty empty 0 -8 0 10 -262144 -1
-1 1;
#X obj 356 35 route 0 1;
#X obj 295 -28 bng 15 250 50 0 empty empty empty 17 7 0 10 -262144
-1 -1;
#X msg 314 78 0;
#X msg 464 66 0;
#X msg 269 69 bang;
#X msg 287 70 stop;
#X msg 382 76 bang;
#X msg 397 76 stop;
#X msg 544 -42;
#X obj -13 253 bng 15 250 50 0 empty empty empty 17 7 0 10 -262144
-1 -1;
#X obj 292 201 bng 15 250 50 0 empty empty empty 17 7 0 10 -262144
-1 -1;
#X obj 337 209 bng 15 250 50 0 empty empty empty 17 7 0 10 -262144
-1 -1;
#X obj 338 239 bng 15 250 50 0 empty empty empty 17 7 0 10 -262144
-1 -1;
#X msg 112 180 0;
#X msg 112 149 1;
#X obj 705 335 bng 15 250 50 0 empty empty empty 17 7 0 10 -262144
-1 -1;
#X obj 216 -73 inlet;
#X obj 256 -73 inlet;
#X obj 297 -76 inlet;
#X obj 332 -73 inlet;
#X obj 394 -77 inlet;
#X obj 456 -76 inlet;
#X obj 617 925 outlet;
#X obj 683 884 outlet;
#X obj 581 855 bng 15 250 50 0 empty empty empty 17 7 0 10 -262144
-1 -1;
#X obj 620 861 bng 15 250 50 0 empty empty empty 17 7 0 10 -262144
-1 -1;
#X obj 776 904 outlet;
#X obj 640 -8 route 0 1;
#X obj -31 771 float;
#X obj 31 740 + 1;
#X floatatom -41 804 5 0 0 0 - - -;
#X floatatom 17 778 5 0 0 0 - - -;
#X obj -11 830 select;
#X msg -2 744 0;
#X obj -13 902 metro;
#X floatatom 37 929 5 0 0 0 - - -;
#X obj 50 872 / 2;
#X msg 325 273 0;
#X obj -22 1013 select 1;
#X obj -39 712 bng 15 250 50 0 empty empty empty 17 7 0 10 -262144
-1 -1;
#X obj 126 1013 bng 15 250 50 0 empty empty empty 17 7 0 10 -262144
-1 -1;
#X obj -16 975 bng 15 250 50 0 empty empty empty 17 7 0 10 -262144
-1 -1;
#X msg 27 976 stop;
#X obj 79 243 bng 15 250 50 0 empty empty empty 17 7 0 10 -262144 -1
-1;
#X obj 223 946 loadbang;
#X obj 200 783 float;
#X obj 291 752 + 1;
#X floatatom 193 836 5 0 0 0 - - -;
#X floatatom 277 790 5 0 0 0 - - -;
#X obj 249 842 select;
#X msg 247 749 0;
#X obj 247 914 metro;
#X floatatom 297 941 5 0 0 0 - - -;
#X obj 310 884 / 2;
#X obj 250 1021 select 1;
#X obj 203 748 bng 15 250 50 0 empty empty empty 17 7 0 10 -262144
-1 -1;
#X obj 208 1025 bng 15 250 50 0 empty empty empty 17 7 0 10 -262144
-1 -1;
#X obj 244 987 bng 15 250 50 0 empty empty empty 17 7 0 10 -262144
-1 -1;
#X msg 287 988 stop;
#X msg 122 797 2;
#X msg 373 838 2;
#X obj 243 227 select 0;
#X obj 318 511 select 0;
#X msg 581 503 0;
#X msg 367 327 0 0;
#X obj 494 974 outlet;
#X obj 419 777 list prepend set;
#X obj 422 797 list trim;
#X msg 412 821 0 0 0;
#X msg 667 293 dump;
#X obj 422 864 list prepend set;
#X obj 425 884 list trim;
#X msg 415 908 0.5 4000 0.5;
#X obj -44 357 route 0 1 2 3;
#X obj 723 287 route 0 1 2 3;
#X obj 348 72 + 1;
#X obj 497 63 + 1;
#X obj 298 20 + 4;
#X obj 474 -14 + 4;
#X msg 150 725 0.5 4000 0.5;
#X msg 815 717 0.5 4000 0.5;
#X obj 959 244 envgen 202 138 1 0  ;
#X msg 852 215 0.5 4000 0.5;
#X obj 890 949 outlet;
#X obj 958 459 envgen 202 138 1 0  ;
#X msg 955 415 0.5 4000 0.5;
#X obj 866 136 loadbang;
#X obj 66 350 moses;
#X obj 68 323 moses;
#X obj 664 428 moses;
#X obj 664 401 moses;
#X msg 221 326 0 700 0.75 700 0;
#X msg 815 411 0 700 0.75 700 0;
#X msg 730 403 1350;
#X msg 123 322 1350;
#X msg 813 379 0 1000 0.75 1000 0;
#X msg 213 302 0 1000 0.75 1000 0;
#X text 787 460 comment;
#X obj 71 265 moses;
#X obj 660 370 moses;
#X msg 728 375 2000;
#X msg 730 350 3100;
#X obj 67 297 moses;
#X obj 653 334 moses;
#X msg 820 321 0 1750 0.75 1750 0;
#X msg 220 255 0 1750 0.75 1750 0;
#X msg 732 315 3500;
#X msg 137 291 2000;
#X msg 155 254 3100;
#X msg 150 212 3500;
#X msg 813 348 0 1400 0.75 1400 0;
#X msg 235 271 0 1400 0.75 1400 0;
#X connect 0 0 1 0;
#X connect 0 1 2 0;
#X connect 0 2 3 0;
#X connect 1 0 4 1;
#X connect 2 0 4 1;
#X connect 3 0 4 1;
#X connect 4 0 6 0;
#X connect 5 0 50 0;
#X connect 6 0 7 1;
#X connect 6 0 42 0;
#X connect 6 0 40 0;
#X connect 6 0 39 0;
#X connect 6 0 167 0;
#X connect 7 0 9 0;
#X connect 7 0 132 0;
#X connect 7 0 174 0;
#X connect 7 0 212 0;
#X connect 8 0 1 0;
#X connect 8 0 2 0;
#X connect 8 0 3 0;
#X connect 8 0 37 0;
#X connect 8 0 36 0;
#X connect 8 0 35 0;
#X connect 8 0 34 0;
#X connect 8 0 25 0;
#X connect 8 0 28 0;
#X connect 8 0 29 0;
#X connect 8 0 43 0;
#X connect 8 0 46 0;
#X connect 8 0 119 0;
#X connect 8 0 225 0;
#X connect 8 0 238 0;
#X connect 8 0 240 0;
#X connect 8 0 239 0;
#X connect 9 0 156 0;
#X connect 9 0 157 0;
#X connect 9 1 197 0;
#X connect 10 0 9 0;
#X connect 11 0 9 0;
#X connect 12 0 9 0;
#X connect 13 0 9 0;
#X connect 14 0 9 0;
#X connect 15 0 9 0;
#X connect 16 0 9 0;
#X connect 18 0 9 0;
#X connect 19 0 9 0;
#X connect 21 0 9 0;
#X connect 23 0 9 0;
#X connect 24 0 26 0;
#X connect 24 1 10 0;
#X connect 25 0 24 1;
#X connect 26 0 27 0;
#X connect 26 1 15 0;
#X connect 27 0 23 0;
#X connect 27 1 21 0;
#X connect 28 0 26 1;
#X connect 29 0 27 1;
#X connect 30 0 31 0;
#X connect 30 1 11 0;
#X connect 31 0 32 0;
#X connect 31 1 14 0;
#X connect 32 0 33 0;
#X connect 32 1 16 0;
#X connect 33 0 19 0;
#X connect 33 1 18 0;
#X connect 34 0 33 1;
#X connect 35 0 32 1;
#X connect 36 0 31 1;
#X connect 37 0 30 1;
#X connect 39 0 48 1;
#X connect 40 0 49 1;
#X connect 41 0 44 0;
#X connect 41 1 12 0;
#X connect 42 0 47 1;
#X connect 43 0 41 1;
#X connect 44 0 45 0;
#X connect 44 1 13 0;
#X connect 45 0 9 0;
#X connect 46 0 44 1;
#X connect 47 0 41 0;
#X connect 48 0 24 0;
#X connect 49 0 229 0;
#X connect 50 0 204 0;
#X connect 51 0 4 0;
#X connect 52 0 53 0;
#X connect 52 1 54 0;
#X connect 52 2 55 0;
#X connect 53 0 56 1;
#X connect 54 0 56 1;
#X connect 55 0 56 1;
#X connect 56 0 58 0;
#X connect 57 0 104 0;
#X connect 58 0 59 1;
#X connect 58 0 96 0;
#X connect 58 0 94 0;
#X connect 58 0 93 0;
#X connect 58 0 184 0;
#X connect 59 0 62 0;
#X connect 59 0 132 0;
#X connect 59 0 215 0;
#X connect 60 0 59 0;
#X connect 61 0 53 0;
#X connect 61 0 54 0;
#X connect 61 0 55 0;
#X connect 61 0 91 0;
#X connect 61 0 90 0;
#X connect 61 0 89 0;
#X connect 61 0 88 0;
#X connect 61 0 79 0;
#X connect 61 0 82 0;
#X connect 61 0 83 0;
#X connect 61 0 97 0;
#X connect 61 0 100 0;
#X connect 61 0 190 0;
#X connect 61 0 191 0;
#X connect 61 0 224 0;
#X connect 61 0 231 0;
#X connect 61 0 232 0;
#X connect 61 0 237 0;
#X connect 62 0 155 0;
#X connect 62 0 157 0;
#X connect 62 1 201 0;
#X connect 63 0 59 0;
#X connect 64 0 62 0;
#X connect 65 0 62 0;
#X connect 66 0 62 0;
#X connect 67 0 62 0;
#X connect 68 0 62 0;
#X connect 69 0 62 0;
#X connect 70 0 62 0;
#X connect 72 0 62 0;
#X connect 73 0 62 0;
#X connect 75 0 62 0;
#X connect 77 0 62 0;
#X connect 78 0 80 0;
#X connect 78 1 64 0;
#X connect 79 0 78 1;
#X connect 80 0 81 0;
#X connect 80 1 69 0;
#X connect 81 0 77 0;
#X connect 81 1 75 0;
#X connect 82 0 80 1;
#X connect 83 0 81 1;
#X connect 84 0 85 0;
#X connect 84 1 65 0;
#X connect 85 0 86 0;
#X connect 85 1 68 0;
#X connect 86 0 87 0;
#X connect 86 1 70 0;
#X connect 87 0 73 0;
#X connect 87 1 72 0;
#X connect 88 0 87 1;
#X connect 89 0 86 1;
#X connect 90 0 85 1;
#X connect 91 0 84 1;
#X connect 92 0 58 0;
#X connect 93 0 102 1;
#X connect 94 0 103 1;
#X connect 95 0 98 0;
#X connect 95 1 66 0;
#X connect 96 0 101 1;
#X connect 97 0 95 1;
#X connect 98 0 99 0;
#X connect 98 1 67 0;
#X connect 99 0 62 0;
#X connect 100 0 98 1;
#X connect 101 0 95 0;
#X connect 102 0 78 0;
#X connect 103 0 234 0;
#X connect 104 0 205 0;
#X connect 105 0 56 0;
#X connect 106 0 130 0;
#X connect 106 0 196 0;
#X connect 106 0 108 0;
#X connect 107 0 62 0;
#X connect 108 0 60 0;
#X connect 108 0 145 0;
#X connect 108 1 63 0;
#X connect 108 1 144 0;
#X connect 109 0 4 0;
#X connect 109 0 56 0;
#X connect 110 0 109 0;
#X connect 111 0 158 0;
#X connect 112 0 114 0;
#X connect 112 0 113 0;
#X connect 113 0 116 0;
#X connect 114 0 106 0;
#X connect 115 0 112 0;
#X connect 116 0 112 1;
#X connect 116 0 117 0;
#X connect 117 0 118 0;
#X connect 118 0 112 1;
#X connect 119 0 117 1;
#X connect 119 0 118 0;
#X connect 120 0 121 0;
#X connect 120 0 206 0;
#X connect 121 0 192 0;
#X connect 122 0 120 1;
#X connect 122 0 123 0;
#X connect 123 0 133 0;
#X connect 123 0 115 0;
#X connect 123 0 141 0;
#X connect 124 0 123 1;
#X connect 124 0 133 0;
#X connect 125 0 126 0;
#X connect 125 0 207 0;
#X connect 126 0 193 0;
#X connect 127 0 125 1;
#X connect 127 0 128 0;
#X connect 128 0 134 0;
#X connect 128 0 115 0;
#X connect 128 0 142 0;
#X connect 129 0 128 1;
#X connect 129 0 134 0;
#X connect 130 0 131 0;
#X connect 131 0 135 0;
#X connect 131 0 138 0;
#X connect 131 1 136 0;
#X connect 131 1 137 0;
#X connect 132 0 130 0;
#X connect 132 0 51 0;
#X connect 132 0 105 0;
#X connect 132 0 200 0;
#X connect 133 0 120 1;
#X connect 134 0 125 1;
#X connect 135 0 120 0;
#X connect 136 0 120 0;
#X connect 137 0 125 0;
#X connect 138 0 125 0;
#X connect 140 0 50 0;
#X connect 141 0 120 0;
#X connect 142 0 125 0;
#X connect 144 0 7 0;
#X connect 145 0 7 0;
#X connect 146 0 104 0;
#X connect 147 0 1 0;
#X connect 147 0 208 0;
#X connect 148 0 2 0;
#X connect 148 0 208 0;
#X connect 149 0 3 0;
#X connect 149 0 208 0;
#X connect 150 0 53 0;
#X connect 150 0 209 0;
#X connect 151 0 54 0;
#X connect 151 0 209 0;
#X connect 152 0 55 0;
#X connect 152 0 209 0;
#X connect 155 0 153 0;
#X connect 156 0 154 0;
#X connect 158 0 144 0;
#X connect 158 0 60 0;
#X connect 158 1 145 0;
#X connect 159 0 161 0;
#X connect 159 0 160 0;
#X connect 160 0 162 0;
#X connect 161 0 169 0;
#X connect 162 0 159 1;
#X connect 162 0 163 0;
#X connect 163 0 164 0;
#X connect 164 0 159 1;
#X connect 165 0 172 0;
#X connect 166 0 165 1;
#X connect 167 0 166 0;
#X connect 168 0 165 0;
#X connect 169 0 171 0;
#X connect 170 0 164 0;
#X connect 170 0 159 0;
#X connect 171 0 173 0;
#X connect 171 0 140 0;
#X connect 172 0 159 0;
#X connect 172 0 200 0;
#X connect 173 0 165 0;
#X connect 176 0 178 0;
#X connect 176 0 177 0;
#X connect 177 0 179 0;
#X connect 178 0 185 0;
#X connect 179 0 176 1;
#X connect 179 0 180 0;
#X connect 180 0 181 0;
#X connect 181 0 176 1;
#X connect 182 0 188 0;
#X connect 183 0 182 1;
#X connect 184 0 183 0;
#X connect 185 0 187 0;
#X connect 186 0 181 0;
#X connect 186 0 176 0;
#X connect 187 0 189 0;
#X connect 187 0 146 0;
#X connect 188 0 176 0;
#X connect 189 0 182 0;
#X connect 190 0 163 1;
#X connect 191 0 180 1;
#X connect 192 0 165 0;
#X connect 192 0 195 0;
#X connect 192 1 168 0;
#X connect 192 1 140 0;
#X connect 193 0 182 0;
#X connect 193 0 107 0;
#X connect 193 1 194 0;
#X connect 193 1 146 0;
#X connect 194 0 182 0;
#X connect 195 0 9 0;
#X connect 197 0 198 0;
#X connect 198 0 199 0;
#X connect 200 0 9 0;
#X connect 200 0 62 0;
#X connect 201 0 202 0;
#X connect 202 0 203 0;
#X connect 204 0 49 0;
#X connect 204 1 48 0;
#X connect 204 2 47 0;
#X connect 204 3 210 0;
#X connect 205 0 103 0;
#X connect 205 1 102 0;
#X connect 205 2 101 0;
#X connect 205 3 211 0;
#X connect 206 0 122 0;
#X connect 207 0 127 0;
#X connect 208 0 124 0;
#X connect 209 0 129 0;
#X connect 210 0 9 0;
#X connect 211 0 62 0;
#X connect 212 0 214 0;
#X connect 213 0 212 0;
#X connect 215 0 214 0;
#X connect 216 0 215 0;
#X connect 217 0 213 0;
#X connect 217 0 216 0;
#X connect 218 0 30 0;
#X connect 218 1 222 0;
#X connect 219 0 218 0;
#X connect 219 1 227 0;
#X connect 220 0 84 0;
#X connect 220 1 223 0;
#X connect 221 0 220 0;
#X connect 221 1 226 0;
#X connect 222 0 9 0;
#X connect 223 0 62 0;
#X connect 224 0 220 1;
#X connect 225 0 218 1;
#X connect 226 0 62 0;
#X connect 227 0 9 0;
#X connect 229 0 233 0;
#X connect 229 1 236 0;
#X connect 230 0 221 0;
#X connect 230 1 241 0;
#X connect 231 0 221 1;
#X connect 232 0 230 1;
#X connect 233 0 219 0;
#X connect 233 1 242 0;
#X connect 234 0 230 0;
#X connect 234 1 235 0;
#X connect 235 0 62 0;
#X connect 236 0 9 0;
#X connect 237 0 234 1;
#X connect 238 0 219 1;
#X connect 239 0 233 1;
#X connect 240 0 229 1;
#X connect 241 0 9 0;
#X connect 242 0 9 0;
#X restore -77 615 pd fffffffffffffffffffffffffffffffffffffffff;
#N canvas 0 0 1007 675 armonizadorrrrrrrrrrrrrrrrrrrrrrrrrrrrrrrrrrrrrrrrrrrrrr
0;
#X obj 316 -4 inlet;
#X obj 231 -2 inlet;
#X obj 480 3 inlet;
#X obj 418 316 osc~;
#X floatatom 420 133 5 0 0 0 - - -;
#X obj 420 514 *~;
#X obj 484 357 osc~;
#X floatatom 484 334 5 0 0 0 - - -;
#X obj 484 435 *~;
#X obj 362 351 osc~;
#X floatatom 362 327 5 0 0 0 - - -;
#X obj 364 433 *~;
#X obj 361 293 /;
#X obj 483 303 *;
#X obj 576 333 osc~;
#X floatatom 576 310 5 0 0 0 - - -;
#X obj 578 436 *~;
#X obj 575 279 *;
#X floatatom 502 408 5 0 0.5 2 - - -;
#X obj 677 317 osc~;
#X floatatom 677 294 5 0 0 0 - - -;
#X obj 678 438 *~;
#X obj 676 263 *;
#X obj 518 384 /;
#X floatatom 418 206 5 0 0.5 0 - - -;
#X floatatom 600 413 5 0 0.5 2 - - -;
#X obj 616 389 /;
#X floatatom 696 410 5 0 0.5 2 - - -;
#X obj 717 386 /;
#X obj 772 292 osc~;
#X floatatom 772 269 5 0 0 0 - - -;
#X obj 773 439 *~;
#X obj 771 238 *;
#X floatatom 791 411 5 0 0.5 2 - - -;
#X obj 807 387 /;
#X floatatom 376 409 5 0 0.5 2 - - -;
#X obj 393 385 /;
#X obj 269 336 osc~;
#X floatatom 269 312 5 0 0 0 - - -;
#X obj 269 433 *~;
#X obj 267 278 /;
#X floatatom 281 409 5 0 0.5 2 - - -;
#X obj 298 385 /;
#X obj 168 316 osc~;
#X floatatom 168 292 5 0 0 0 - - -;
#X obj 173 437 *~;
#X obj 167 258 /;
#X floatatom 185 413 5 0 0.5 2 - - -;
#X obj 202 389 /;
#X obj 71 305 osc~;
#X floatatom 71 281 5 0 0 0 - - -;
#X obj 72 449 *~;
#X obj 71 253 /;
#X floatatom 84 425 5 0 0.5 2 - - -;
#X obj 101 401 /;
#X obj 418 431 *~;
#X msg 40 423 0;
#X msg 142 409 0;
#X msg 234 405 0;
#X msg 330 408 0;
#X msg 460 404 0;
#X msg 545 406 0;
#X msg 643 413 0;
#X msg 742 411 0;
#X msg 837 410 0;
#X msg 9 216 1;
#X obj 59 404 bng 15 250 50 0 empty empty empty 17 7 0 10 -262144 -1
-1;
#X obj 58 386 bng 15 250 50 0 empty empty empty 17 7 0 10 -258113 -257985
-258113;
#X obj 159 392 bng 15 250 50 0 empty empty empty 17 7 0 10 -262144
-1 -1;
#X obj 254 388 bng 15 250 50 0 empty empty empty 17 7 0 10 -262144
-1 -1;
#X obj 350 387 bng 15 250 50 0 empty empty empty 17 7 0 10 -262144
-1 -1;
#X obj 426 387 bng 15 250 50 0 empty empty empty 17 7 0 10 -262144
-1 -1;
#X obj 502 387 bng 15 250 50 0 empty empty empty 17 7 0 10 -262144
-1 -1;
#X obj 583 390 bng 15 250 50 0 empty empty empty 17 7 0 10 -262144
-1 -1;
#X obj 684 390 bng 15 250 50 0 empty empty empty 17 7 0 10 -262144
-1 -1;
#X obj 776 390 bng 15 250 50 0 empty empty empty 17 7 0 10 -262144
-1 -1;
#X obj 160 374 bng 15 250 50 0 empty empty empty 17 7 0 10 -258113
-257985 -258113;
#X obj 254 370 bng 15 250 50 0 empty empty empty 17 7 0 10 -258113
-257985 -258113;
#X obj 349 369 bng 15 250 50 0 empty empty empty 17 7 0 10 -258113
-257985 -258113;
#X obj 425 366 bng 15 250 50 0 empty empty empty 17 7 0 10 -258113
-257985 -258113;
#X obj 501 371 bng 15 250 50 0 empty empty empty 17 7 0 10 -258113
-257985 -258113;
#X obj 582 372 bng 15 250 50 0 empty empty empty 17 7 0 10 -258113
-257985 -258113;
#X obj 683 373 bng 15 250 50 0 empty empty empty 17 7 0 10 -258113
-257985 -258113;
#X obj 777 372 bng 15 250 50 0 empty empty empty 17 7 0 10 -258113
-257985 -258113;
#X floatatom 422 405 5 0 0.5 0 - - -;
#X msg 9 351 5;
#X msg 10 317 4;
#X msg 8 284 3;
#X msg 8 249 2;
#X floatatom -89 158 5 0 0 0 - - -;
#X msg 9 182 0;
#X obj -57 217 select 1;
#X obj -57 182 select 0;
#X obj -59 351 select 5;
#X obj -58 318 select 4;
#X obj -57 283 select 3;
#X obj -59 249 select 2;
#X msg 519 360 2;
#X msg 614 363 3;
#X msg 716 358 4;
#X msg 806 360 5;
#X msg 394 362 2;
#X msg 299 359 3;
#X msg 203 362 4;
#X msg 102 377 5;
#X floatatom 50 214 5 0 0 0 - - -;
#X floatatom 147 228 5 0 0 0 - - -;
#X msg 136 172 2;
#X msg 157 148 3;
#X msg 177 172 4;
#X msg 196 147 5;
#X floatatom 610 223 5 0 0 0 - - -;
#X msg 597 119 2;
#X msg 618 95 3;
#X msg 638 119 4;
#X msg 657 94 5;
#X floatatom 707 237 5 0 0 0 - - -;
#X msg 696 181 2;
#X msg 717 157 3;
#X msg 737 181 4;
#X msg 756 156 5;
#X floatatom 819 219 5 0 0 0 - - -;
#X msg 806 115 2;
#X msg 827 91 3;
#X msg 847 115 4;
#X msg 866 90 5;
#X floatatom 502 241 5 0 0 0 - - -;
#X floatatom 256 217 5 0 0 0 - - -;
#X msg 243 113 2;
#X msg 264 89 3;
#X msg 284 113 4;
#X msg 303 88 5;
#X floatatom 351 259 5 0 0 0 - - -;
#X msg 318 202 2;
#X msg 339 178 3;
#X msg 359 202 4;
#X msg 378 177 5;
#X obj 406 12 inlet;
#X obj 17 57 route 0 1 2 3 4;
#X obj 223 60 route 0 1 2 3 4;
#X obj 116 119 route 0 1 2 3 4;
#X obj 298 149 route 0 1 2 3 4;
#X obj 471 132 route 0 1 2 3 4;
#X obj 577 66 route 0 1 2 3 4;
#X obj 676 128 route 0 1 2 3 4;
#X obj 786 62 route 0 1 2 3 4;
#X msg 16 85 5;
#X msg 115 147 4;
#X msg 222 88 3;
#X msg 296 177 2;
#X msg 470 160 2;
#X msg 576 94 3;
#X msg 675 156 4;
#X msg 785 90 5;
#X obj 408 282 loadbang;
#X msg 37 110 1.5;
#X msg 58 86 1.6;
#X msg 78 110 1.8;
#X msg 97 85 0.5;
#X msg 491 185 1.5;
#X msg 512 161 1.7;
#X msg 532 185 1.9;
#X msg 551 160 0.5;
#X obj 466 217 bng 15 250 50 0 empty empty empty 17 7 0 10 -262144
-1 -1;
#X obj 356 594 outlet~;
#X obj 623 557 line~;
#X obj 60 8 inlet;
#X floatatom 491 562 5 0 0.5 0 - - -;
#X floatatom 421 72 5 0 0 0 - - -;
#X obj 451 102 *;
#X msg 487 78 2;
#X obj 898 291 osc~;
#X obj 875 367 *~;
#X floatatom 891 438 5 0 0.5 2 - - -;
#X obj 734 525 outlet~;
#X obj 820 498 *~;
#X obj 5 12 inlet;
#X obj -71 10 inlet;
#X floatatom -58 455 5 0 0 0 - - -;
#X obj -62 495 route 0 1;
#X floatatom -3 465 5 0 0 0 - - -;
#X obj 18 497 route 0 1;
#X msg -58 538 0;
#X msg 17 539 0;
#X obj 408 546 *~;
#X obj 481 593 float;
#X obj 874 494 float;
#X obj 197 41 bng 15 250 50 0 empty empty empty 17 7 0 10 -262144 -1
-1;
#X obj 53 526 bng 15 250 50 0 empty empty empty 17 7 0 10 -262144 -1
-1;
#X obj -24 522 bng 15 250 50 0 empty empty empty 17 7 0 10 -262144
-1 -1;
#X obj 831 9 inlet;
#X obj 710 17 inlet;
#X obj 724 579 outlet;
#X obj 782 7 inlet;
#X obj 150 -2 inlet;
#X obj 173 576 bng 15 250 50 0 empty empty empty 17 7 0 10 -262144
-1 -1;
#X obj 841 267 float;
#X obj 275 733 swap;
#X floatatom 238 753 5 0 0 0 - - -;
#X msg 788 597 0.2 100 0.75 100 0.2;
#X obj 806 567 bng 15 250 50 0 empty empty empty 17 7 0 10 -262144
-1 -1;
#X obj 670 653 line~;
#X obj 889 13 inlet;
#X obj 569 631 line~;
#X obj 841 304 osc~;
#X obj 835 339 *~;
#X obj 15 -6 tgl 15 0 empty empty empty 17 7 0 10 -262144 -1 -1 0 1
;
#X obj 208 620 hradio 15 1 0 3 empty empty empty 0 -8 0 10 -262144
-1 -1 2;
#X obj 158 602 bng 15 250 50 0 empty empty empty 17 7 0 10 -262144
-1 -1;
#X msg 353 732 0;
#X msg 413 736 bang;
#X msg 483 737 0;
#X msg 534 738 bang;
#X obj 913 251 float;
#X obj 383 621 route 0 1 2;
#X obj 926 26 inlet;
#X connect 0 0 89 0;
#X connect 1 0 187 0;
#X connect 1 0 24 0;
#X connect 2 0 168 0;
#X connect 3 0 55 0;
#X connect 4 0 3 0;
#X connect 4 0 13 0;
#X connect 4 0 12 0;
#X connect 4 0 17 0;
#X connect 4 0 40 0;
#X connect 4 0 46 0;
#X connect 4 0 52 0;
#X connect 4 0 22 0;
#X connect 4 0 32 0;
#X connect 5 0 184 0;
#X connect 6 0 8 0;
#X connect 7 0 6 0;
#X connect 8 0 5 0;
#X connect 9 0 11 0;
#X connect 10 0 9 0;
#X connect 11 0 5 0;
#X connect 12 0 10 0;
#X connect 13 0 7 0;
#X connect 14 0 16 0;
#X connect 15 0 14 0;
#X connect 16 0 5 0;
#X connect 17 0 15 0;
#X connect 18 0 8 1;
#X connect 19 0 21 0;
#X connect 20 0 19 0;
#X connect 21 0 5 0;
#X connect 22 0 20 0;
#X connect 23 0 18 0;
#X connect 24 0 23 0;
#X connect 24 0 26 0;
#X connect 24 0 28 0;
#X connect 24 0 34 0;
#X connect 24 0 36 0;
#X connect 24 0 42 0;
#X connect 24 0 48 0;
#X connect 24 0 54 0;
#X connect 24 0 84 0;
#X connect 24 0 167 0;
#X connect 25 0 16 1;
#X connect 26 0 25 0;
#X connect 27 0 21 1;
#X connect 28 0 27 0;
#X connect 29 0 31 0;
#X connect 30 0 29 0;
#X connect 31 0 5 0;
#X connect 32 0 30 0;
#X connect 33 0 31 1;
#X connect 34 0 33 0;
#X connect 35 0 11 1;
#X connect 36 0 35 0;
#X connect 37 0 39 0;
#X connect 38 0 37 0;
#X connect 39 0 5 0;
#X connect 40 0 38 0;
#X connect 41 0 39 1;
#X connect 42 0 41 0;
#X connect 43 0 45 0;
#X connect 44 0 43 0;
#X connect 45 0 5 0;
#X connect 46 0 44 0;
#X connect 47 0 45 1;
#X connect 48 0 47 0;
#X connect 49 0 51 0;
#X connect 50 0 49 0;
#X connect 51 0 5 0;
#X connect 52 0 50 0;
#X connect 53 0 51 1;
#X connect 54 0 53 0;
#X connect 55 0 5 0;
#X connect 56 0 51 1;
#X connect 57 0 45 1;
#X connect 58 0 39 1;
#X connect 59 0 11 1;
#X connect 60 0 55 1;
#X connect 61 0 8 1;
#X connect 62 0 16 1;
#X connect 63 0 21 1;
#X connect 64 0 31 1;
#X connect 65 0 66 0;
#X connect 65 0 68 0;
#X connect 65 0 69 0;
#X connect 65 0 70 0;
#X connect 65 0 79 0;
#X connect 65 0 75 0;
#X connect 65 0 74 0;
#X connect 65 0 73 0;
#X connect 65 0 72 0;
#X connect 66 0 56 0;
#X connect 67 0 53 0;
#X connect 68 0 57 0;
#X connect 69 0 58 0;
#X connect 70 0 59 0;
#X connect 71 0 60 0;
#X connect 72 0 61 0;
#X connect 73 0 62 0;
#X connect 74 0 63 0;
#X connect 75 0 64 0;
#X connect 76 0 47 0;
#X connect 77 0 41 0;
#X connect 78 0 35 0;
#X connect 79 0 84 0;
#X connect 80 0 18 0;
#X connect 81 0 25 0;
#X connect 82 0 27 0;
#X connect 83 0 33 0;
#X connect 84 0 55 1;
#X connect 85 0 67 0;
#X connect 85 0 76 0;
#X connect 85 0 77 0;
#X connect 85 0 78 0;
#X connect 85 0 79 0;
#X connect 85 0 80 0;
#X connect 85 0 81 0;
#X connect 85 0 82 0;
#X connect 85 0 83 0;
#X connect 86 0 66 0;
#X connect 86 0 76 0;
#X connect 86 0 77 0;
#X connect 86 0 78 0;
#X connect 86 0 79 0;
#X connect 86 0 80 0;
#X connect 86 0 81 0;
#X connect 86 0 28 1;
#X connect 86 0 82 0;
#X connect 86 0 75 0;
#X connect 87 0 66 0;
#X connect 87 0 68 0;
#X connect 87 0 77 0;
#X connect 87 0 78 0;
#X connect 87 0 49 0;
#X connect 87 0 79 0;
#X connect 87 0 80 0;
#X connect 87 0 81 0;
#X connect 87 0 74 0;
#X connect 87 0 75 0;
#X connect 88 0 75 0;
#X connect 88 0 74 0;
#X connect 88 0 73 0;
#X connect 88 0 66 0;
#X connect 88 0 68 0;
#X connect 88 0 69 0;
#X connect 88 0 78 0;
#X connect 88 0 79 0;
#X connect 88 0 80 0;
#X connect 89 0 91 0;
#X connect 89 0 92 0;
#X connect 89 0 93 0;
#X connect 89 0 94 0;
#X connect 89 0 95 0;
#X connect 89 0 96 0;
#X connect 90 0 66 0;
#X connect 90 0 68 0;
#X connect 90 0 69 0;
#X connect 90 0 70 0;
#X connect 90 0 71 0;
#X connect 90 0 72 0;
#X connect 90 0 73 0;
#X connect 90 0 75 0;
#X connect 90 0 74 0;
#X connect 91 0 65 0;
#X connect 92 0 90 0;
#X connect 93 0 85 0;
#X connect 94 0 86 0;
#X connect 95 0 87 0;
#X connect 96 0 88 0;
#X connect 97 0 23 1;
#X connect 98 0 26 1;
#X connect 99 0 28 1;
#X connect 100 0 34 1;
#X connect 101 0 36 1;
#X connect 102 0 42 1;
#X connect 103 0 48 1;
#X connect 104 0 54 1;
#X connect 105 0 52 1;
#X connect 106 0 46 1;
#X connect 107 0 106 0;
#X connect 108 0 106 0;
#X connect 109 0 106 0;
#X connect 110 0 106 0;
#X connect 111 0 17 1;
#X connect 112 0 111 0;
#X connect 113 0 111 0;
#X connect 114 0 111 0;
#X connect 115 0 111 0;
#X connect 116 0 22 1;
#X connect 117 0 116 0;
#X connect 118 0 116 0;
#X connect 119 0 116 0;
#X connect 120 0 116 0;
#X connect 121 0 32 1;
#X connect 122 0 121 0;
#X connect 123 0 121 0;
#X connect 124 0 121 0;
#X connect 125 0 121 0;
#X connect 126 0 13 1;
#X connect 127 0 40 1;
#X connect 128 0 127 0;
#X connect 129 0 127 0;
#X connect 130 0 127 0;
#X connect 131 0 127 0;
#X connect 132 0 12 1;
#X connect 133 0 132 0;
#X connect 134 0 132 0;
#X connect 135 0 132 0;
#X connect 136 0 132 0;
#X connect 137 0 138 0;
#X connect 137 0 139 0;
#X connect 137 0 140 0;
#X connect 137 0 141 0;
#X connect 137 0 142 0;
#X connect 137 0 143 0;
#X connect 137 0 144 0;
#X connect 137 0 145 0;
#X connect 138 0 146 0;
#X connect 138 1 155 0;
#X connect 138 2 156 0;
#X connect 138 3 157 0;
#X connect 138 4 158 0;
#X connect 139 0 148 0;
#X connect 139 1 128 0;
#X connect 139 2 129 0;
#X connect 139 3 130 0;
#X connect 139 4 131 0;
#X connect 140 0 147 0;
#X connect 140 1 107 0;
#X connect 140 2 108 0;
#X connect 140 3 109 0;
#X connect 140 4 110 0;
#X connect 141 0 149 0;
#X connect 141 1 133 0;
#X connect 141 2 134 0;
#X connect 141 3 135 0;
#X connect 141 4 136 0;
#X connect 142 0 150 0;
#X connect 142 1 159 0;
#X connect 142 2 160 0;
#X connect 142 3 161 0;
#X connect 142 4 162 0;
#X connect 143 0 151 0;
#X connect 143 1 112 0;
#X connect 143 2 113 0;
#X connect 143 3 114 0;
#X connect 143 4 115 0;
#X connect 144 0 152 0;
#X connect 144 1 117 0;
#X connect 144 2 118 0;
#X connect 144 3 119 0;
#X connect 144 4 120 0;
#X connect 145 0 153 0;
#X connect 145 1 122 0;
#X connect 145 2 123 0;
#X connect 145 3 124 0;
#X connect 145 4 125 0;
#X connect 146 0 105 0;
#X connect 147 0 106 0;
#X connect 148 0 127 0;
#X connect 149 0 132 0;
#X connect 150 0 126 0;
#X connect 150 0 163 0;
#X connect 151 0 111 0;
#X connect 152 0 116 0;
#X connect 153 0 121 0;
#X connect 154 0 104 0;
#X connect 154 0 103 0;
#X connect 154 0 102 0;
#X connect 154 0 101 0;
#X connect 154 0 100 0;
#X connect 154 0 99 0;
#X connect 154 0 97 0;
#X connect 154 0 98 0;
#X connect 154 0 170 0;
#X connect 155 0 105 0;
#X connect 156 0 105 0;
#X connect 157 0 105 0;
#X connect 158 0 105 0;
#X connect 159 0 126 0;
#X connect 159 0 163 0;
#X connect 160 0 126 0;
#X connect 160 0 163 0;
#X connect 161 0 126 0;
#X connect 161 0 163 0;
#X connect 162 0 126 0;
#X connect 162 0 163 0;
#X connect 163 0 126 0;
#X connect 165 0 5 1;
#X connect 165 0 172 1;
#X connect 166 0 165 0;
#X connect 167 0 185 1;
#X connect 168 0 169 0;
#X connect 168 0 192 0;
#X connect 168 0 208 0;
#X connect 168 0 196 1;
#X connect 168 0 213 1;
#X connect 169 0 4 0;
#X connect 170 0 169 1;
#X connect 171 0 172 0;
#X connect 172 0 175 0;
#X connect 173 0 186 1;
#X connect 175 0 174 0;
#X connect 176 0 180 0;
#X connect 177 0 178 0;
#X connect 178 0 179 0;
#X connect 179 0 182 0;
#X connect 179 1 189 0;
#X connect 180 0 181 0;
#X connect 181 0 183 0;
#X connect 181 1 188 0;
#X connect 182 0 184 1;
#X connect 183 0 175 1;
#X connect 184 0 164 0;
#X connect 185 0 184 1;
#X connect 186 0 175 1;
#X connect 187 0 178 0;
#X connect 187 0 180 0;
#X connect 188 0 186 0;
#X connect 189 0 185 0;
#X connect 190 0 165 0;
#X connect 191 0 168 0;
#X connect 193 0 165 0;
#X connect 194 0 173 0;
#X connect 194 0 195 0;
#X connect 195 0 186 0;
#X connect 196 0 204 0;
#X connect 199 0 165 0;
#X connect 200 0 199 0;
#X connect 201 0 205 1;
#X connect 202 0 201 0;
#X connect 204 0 205 0;
#X connect 205 0 175 0;
#X connect 207 0 214 0;
#X connect 208 0 207 0;
#X connect 209 0 196 0;
#X connect 210 0 196 0;
#X connect 211 0 213 0;
#X connect 212 0 213 0;
#X connect 213 0 171 0;
#X connect 214 0 209 0;
#X connect 214 0 211 0;
#X connect 214 1 210 0;
#X connect 214 1 211 0;
#X connect 214 2 212 0;
#X connect 214 2 209 0;
#X connect 215 0 207 0;
#X coords 0 1350 2 1348 0 0 0;
#X restore -81 585 pd armonizadorrrrrrrrrrrrrrrrrrrrrrrrrrrrrrrrrrrrrrrrrrrrrr
;
#X obj 85 276 vsl 30 250 50 2000 0 0 empty empty empty 0 -9 0 10 -228856
-66577 -86853 21800 1;
#N canvas 45 79 602 637 (subpatch) 0;
#X msg 402 537 200;
#X msg 398 495 180;
#X msg 394 457 160;
#X msg 383 414 140;
#X msg 373 378 120;
#X obj 54 427 line 0 5;
#X obj 156 392 pack f 5000;
#X obj 224 460 hsl 128 15 0 127 0 0 empty empty empty -2 -6 0 8 -262144
-1 -1 0 1;
#X obj 221 427 line 0 500;
#X msg 443 499 220;
#X msg 448 536 440;
#X floatatom 550 148 5 0 0 0 - - -;
#X obj 142 24 inlet;
#X obj 262 510 outlet;
#X msg 449 578 880;
#X msg 146 189 55;
#X msg 178 188 60;
#X msg 212 196 70;
#X msg 251 194 80;
#X msg 289 221 90;
#X msg 333 254 100;
#X msg 360 328 110;
#X obj 155 89 route 55 60 70 80 90 100 110 120 140 160 180 200 220
440 880;
#X connect 2 0 6 0;
#X connect 3 0 6 0;
#X connect 4 0 6 0;
#X connect 5 0 13 0;
#X connect 6 0 5 0;
#X connect 6 0 8 0;
#X connect 8 0 7 0;
#X connect 9 0 6 0;
#X connect 10 0 6 0;
#X connect 11 0 6 0;
#X connect 12 0 22 0;
#X connect 14 0 6 0;
#X connect 15 0 6 0;
#X connect 16 0 6 0;
#X connect 17 0 6 0;
#X connect 18 0 6 0;
#X connect 19 0 6 0;
#X connect 20 0 6 0;
#X connect 21 0 6 0;
#X connect 22 0 15 0;
#X connect 22 1 16 0;
#X connect 22 2 17 0;
#X connect 22 3 18 0;
#X connect 22 4 19 0;
#X connect 22 5 20 0;
#X connect 22 6 21 0;
#X connect 22 7 4 0;
#X connect 22 8 3 0;
#X connect 22 9 2 0;
#X connect 22 10 1 0;
#X connect 22 11 0 0;
#X connect 22 12 9 0;
#X connect 22 13 10 0;
#X connect 22 14 14 0;
#X connect 22 15 11 0;
#X restore 278 39 pd;
#X msg 376 19 200;
#X msg 340 18 180;
#X msg 303 18 160;
#X msg 266 17 140;
#X msg 226 17 120;
#X msg 185 17 100;
#X msg 144 17 90;
#X msg 107 19 80;
#X msg 71 19 70;
#X msg 33 19 60;
#X msg 313 43 880;
#X msg 247 44 440;
#X msg 192 42 220;
#X obj -76 246 vsl 40 280 0 1 0 0 empty empty empty 0 -9 0 10 -261234
-66577 -1 27900 1;
#X text -76 131 BASS;
#X text -25 131 ARM.;
#X msg 89 41 55;
#X msg 139 42 110;
#X obj 345 44 nbx 5 30 -1e+037 1e+037 0 0 empty empty empty 0 -8 0
10 -262144 -1 -1 0 256;
#N canvas 213 340 450 300 (subpatch) 0;
#X obj 179 63 inlet;
#X obj 172 158 outlet;
#X connect 0 0 1 0;
#X restore 27 58 pd;
#X obj 28 241 nbx 4 30 -1e+037 1e+037 0 0 empty empty empty 0 -8 0
10 -262144 -1 -1 0 256;
#N canvas 357 25 602 637 (subpatch) 0;
#X obj 54 427 line 0 5;
#X obj 156 392 pack f 5000;
#X obj 224 460 hsl 128 15 0 127 0 0 empty empty empty -2 -6 0 8 -262144
-1 -1 0 1;
#X obj 221 427 line 0 500;
#X floatatom 550 148 5 0 0 0 - - -;
#X obj 142 24 inlet;
#X obj 262 510 outlet;
#X msg 146 189 2000;
#X msg 178 188 1750;
#X msg 212 196 1500;
#X msg 251 194 1250;
#X msg 289 221 1000;
#X msg 333 254 800;
#X msg 367 328 600;
#X msg 381 374 400;
#X msg 396 414 200;
#X msg 411 449 100;
#X msg 445 493 75;
#X msg 495 510 50;
#X obj 156 89 route 2000 1750 1500 1250 1000 800 600 400 200 100 75
50;
#X connect 0 0 6 0;
#X connect 1 0 0 0;
#X connect 1 0 3 0;
#X connect 3 0 2 0;
#X connect 4 0 1 0;
#X connect 5 0 19 0;
#X connect 7 0 1 0;
#X connect 8 0 1 0;
#X connect 9 0 1 0;
#X connect 10 0 1 0;
#X connect 11 0 1 0;
#X connect 12 0 1 0;
#X connect 13 0 1 0;
#X connect 14 0 1 0;
#X connect 15 0 1 0;
#X connect 16 0 1 0;
#X connect 18 0 1 0;
#X connect 19 0 7 0;
#X connect 19 1 8 0;
#X connect 19 2 9 0;
#X connect 19 3 10 0;
#X connect 19 4 11 0;
#X connect 19 5 12 0;
#X connect 19 6 13 0;
#X connect 19 7 14 0;
#X connect 19 8 15 0;
#X connect 19 9 16 0;
#X connect 19 10 17 0;
#X connect 19 11 18 0;
#X connect 19 12 4 0;
#X restore 17 344 pd;
#X msg 45 275 2000;
#X msg 45 296 1750;
#X msg 45 317 1500;
#X msg 46 338 1250;
#X msg 47 362 1000;
#X msg 46 382 800;
#X msg 46 403 600;
#X msg 45 423 400;
#X msg 46 443 200;
#X msg 47 467 100;
#X msg 46 508 50;
#X msg 46 487 75;
#N canvas 146 321 450 300 (subpatch) 0;
#X obj 32 56 inlet;
#X obj 59 165 outlet;
#X obj 93 122 random;
#X obj 142 -18 inlet;
#X floatatom 142 164 5 0 0 0 - - -;
#X obj 256 -7 inlet;
#X obj 269 245 outlet;
#X obj 349 170 random;
#X obj 371 -7 inlet;
#X floatatom 340 232 5 0 0 0 - - -;
#X obj 103 56 metro;
#X floatatom 139 18 5 0 0 0 - - -;
#X obj 102 102 bng 15 250 50 0 empty empty empty 17 7 0 10 -262144
-1 -1;
#X obj 240 143 loadbang;
#X msg 152 94 12;
#X obj 314 53 metro;
#X floatatom 356 25 5 0 0 0 - - -;
#X obj 313 81 bng 15 250 50 0 empty empty empty 17 7 0 10 -262144 -1
-1;
#X msg 378 102 5;
#X obj 386 214 + 1;
#X connect 0 0 10 0;
#X connect 2 0 4 0;
#X connect 3 0 11 0;
#X connect 4 0 1 0;
#X connect 5 0 15 0;
#X connect 7 0 19 0;
#X connect 8 0 16 0;
#X connect 9 0 6 0;
#X connect 10 0 12 0;
#X connect 11 0 10 1;
#X connect 12 0 2 0;
#X connect 13 0 14 0;
#X connect 13 0 18 0;
#X connect 14 0 2 1;
#X connect 15 0 17 0;
#X connect 16 0 15 1;
#X connect 17 0 7 0;
#X connect 18 0 7 1;
#X connect 19 0 9 0;
#X restore 744 69 pd;
#X obj 768 133 tgl 20 0 empty empty empty 17 7 0 10 -262144 -1 -1 0
1;
#X text 777 70 Random;
#X obj 798 133 hsl 40 20 20 150 0 0 empty empty empty -2 -8 0 10 -262144
-1 -1 1200 1;
#X obj 766 95 tgl 20 0 empty empty empty 17 7 0 10 -262144 -1 -1 0
1;
#X obj 796 94 hsl 40 20 20 150 0 0 empty empty empty -2 -8 0 10 -262144
-1 -1 100 1;
#N canvas 213 340 450 300 (subpatch) 0;
#X obj 179 63 inlet;
#X obj 172 158 outlet;
#X connect 0 0 1 0;
#X restore 16 283 pd;
#N canvas 213 340 450 300 h 0;
#X obj 179 63 inlet;
#X obj 160 222 outlet;
#X obj 185 167 hradio 15 1 0 3 empty empty empty 0 -8 0 10 -262144
-1 -1 0;
#X connect 0 0 2 0;
#X connect 2 0 1 0;
#X restore -118 587 pd h;
#N canvas 213 340 450 300 f 0;
#X obj 243 61 inlet;
#X obj 236 156 outlet;
#X obj 297 64 inlet;
#X obj 290 159 outlet;
#X obj 361 60 inlet;
#X obj 354 155 outlet;
#X obj 50 57 inlet;
#X obj 43 152 outlet;
#X obj 104 60 inlet;
#X obj 97 155 outlet;
#X obj 168 56 inlet;
#X obj 161 151 outlet;
#X obj 407 59 inlet;
#X obj 400 154 outlet;
#X connect 0 0 1 0;
#X connect 2 0 3 0;
#X connect 4 0 5 0;
#X connect 6 0 7 0;
#X connect 8 0 9 0;
#X connect 10 0 11 0;
#X connect 12 0 13 0;
#X restore 13 452 pd f;
#N canvas 213 340 450 300 g 0;
#X obj 243 61 inlet;
#X obj 236 156 outlet;
#X obj 297 64 inlet;
#X obj 290 159 outlet;
#X obj 361 60 inlet;
#X obj 354 155 outlet;
#X obj 50 57 inlet;
#X obj 43 152 outlet;
#X obj 104 60 inlet;
#X obj 97 155 outlet;
#X obj 168 56 inlet;
#X obj 161 151 outlet;
#X obj 411 55 inlet;
#X obj 404 150 outlet;
#X connect 0 0 1 0;
#X connect 2 0 3 0;
#X connect 4 0 5 0;
#X connect 6 0 7 0;
#X connect 8 0 9 0;
#X connect 10 0 11 0;
#X connect 12 0 13 0;
#X restore 9 543 pd g;
#X obj 189 245 hradio 30 1 0 3 empty empty empty 0 -8 0 10 -228856
-1 -1 2;
#X text 200 221 Ritm. Bass;
#N canvas 213 340 450 300 (subpatch) 0;
#X obj 179 63 inlet;
#X obj 172 158 outlet;
#X connect 0 0 1 0;
#X restore 14 271 pd;
#N canvas 213 340 450 300 (subpatch) 0;
#X obj 179 63 inlet;
#X obj 172 158 outlet;
#X connect 0 0 1 0;
#X restore 29 560 pd;
#X connect 1 0 101 0;
#X connect 2 0 34 1;
#X connect 3 0 16 0;
#X connect 4 0 36 1;
#X connect 5 0 38 1;
#X connect 6 0 40 1;
#X connect 7 0 42 1;
#X connect 8 0 44 1;
#X connect 9 0 46 1;
#X connect 10 0 48 1;
#X connect 11 0 50 1;
#X connect 12 0 52 1;
#X connect 13 0 54 1;
#X connect 14 0 56 1;
#X connect 15 0 25 1;
#X connect 16 0 108 5;
#X connect 20 0 3 0;
#X connect 20 1 3 0;
#X connect 21 0 20 0;
#X connect 22 0 21 0;
#X connect 23 0 108 7;
#X connect 24 0 25 0;
#X connect 25 0 108 7;
#X connect 25 1 69 0;
#X connect 26 0 27 0;
#X connect 26 0 27 1;
#X connect 27 0 108 6;
#X connect 27 1 108 7;
#X connect 28 0 29 0;
#X connect 29 0 20 1;
#X connect 31 0 153 0;
#X connect 32 0 97 0;
#X connect 32 0 103 0;
#X connect 33 0 108 2;
#X connect 33 1 97 3;
#X connect 34 0 2 0;
#X connect 34 0 35 0;
#X connect 34 1 24 0;
#X connect 36 0 37 0;
#X connect 36 0 4 0;
#X connect 36 1 24 0;
#X connect 38 0 39 0;
#X connect 38 0 5 0;
#X connect 38 1 24 0;
#X connect 40 0 41 0;
#X connect 40 0 6 0;
#X connect 40 1 24 0;
#X connect 42 0 43 0;
#X connect 42 0 7 0;
#X connect 42 1 24 0;
#X connect 44 0 45 0;
#X connect 44 0 8 0;
#X connect 44 1 24 0;
#X connect 46 0 47 0;
#X connect 46 0 9 0;
#X connect 46 1 24 0;
#X connect 48 0 49 0;
#X connect 48 0 10 0;
#X connect 48 1 24 0;
#X connect 50 0 51 0;
#X connect 50 0 11 0;
#X connect 50 1 24 0;
#X connect 52 0 53 0;
#X connect 52 0 12 0;
#X connect 52 1 24 0;
#X connect 54 0 55 0;
#X connect 54 0 13 0;
#X connect 54 1 24 0;
#X connect 56 0 57 0;
#X connect 56 0 14 0;
#X connect 56 1 24 0;
#X connect 58 0 56 0;
#X connect 59 0 54 0;
#X connect 60 0 52 0;
#X connect 61 0 50 0;
#X connect 62 0 48 0;
#X connect 63 0 46 0;
#X connect 64 0 44 0;
#X connect 65 0 42 0;
#X connect 66 0 40 0;
#X connect 67 0 38 0;
#X connect 68 0 36 0;
#X connect 69 0 34 0;
#X connect 69 1 36 0;
#X connect 69 2 38 0;
#X connect 69 3 40 0;
#X connect 69 4 42 0;
#X connect 69 5 44 0;
#X connect 69 6 46 0;
#X connect 69 7 48 0;
#X connect 69 8 50 0;
#X connect 69 9 52 0;
#X connect 69 10 54 0;
#X connect 69 11 56 0;
#X connect 70 0 34 0;
#X connect 71 0 72 0;
#X connect 71 1 72 1;
#X connect 72 0 33 1;
#X connect 72 1 33 2;
#X connect 72 2 33 3;
#X connect 72 3 33 4;
#X connect 73 0 27 0;
#X connect 73 0 27 1;
#X connect 74 0 153 2;
#X connect 75 0 153 1;
#X connect 76 0 153 3;
#X connect 77 0 27 0;
#X connect 77 0 27 1;
#X connect 78 0 153 5;
#X connect 79 0 153 4;
#X connect 80 0 105 0;
#X connect 81 0 105 1;
#X connect 82 0 106 0;
#X connect 83 0 106 1;
#X connect 84 0 97 1;
#X connect 87 0 71 0;
#X connect 89 0 71 1;
#X connect 91 0 93 0;
#X connect 92 0 93 1;
#X connect 93 0 94 0;
#X connect 93 1 94 1;
#X connect 94 0 108 1;
#X connect 94 1 108 0;
#X connect 97 0 33 6;
#X connect 97 1 98 0;
#X connect 97 2 99 0;
#X connect 97 3 32 0;
#X connect 98 0 108 8;
#X connect 98 1 97 2;
#X connect 99 0 84 0;
#X connect 100 0 108 4;
#X connect 100 0 22 0;
#X connect 101 0 108 7;
#X connect 102 0 151 0;
#X connect 103 0 107 0;
#X connect 104 0 31 0;
#X connect 104 1 75 0;
#X connect 104 2 74 0;
#X connect 104 3 76 0;
#X connect 104 4 79 0;
#X connect 104 5 78 0;
#X connect 105 0 104 0;
#X connect 105 1 104 1;
#X connect 106 0 107 1;
#X connect 106 1 107 2;
#X connect 107 1 73 0;
#X connect 107 2 77 0;
#X connect 107 3 108 9;
#X connect 107 4 108 11;
#X connect 108 0 0 1;
#X connect 108 1 98 1;
#X connect 108 2 0 0;
#X connect 109 0 130 0;
#X connect 110 0 1 0;
#X connect 111 0 110 0;
#X connect 112 0 110 0;
#X connect 113 0 110 0;
#X connect 114 0 110 0;
#X connect 115 0 110 0;
#X connect 116 0 110 0;
#X connect 117 0 110 0;
#X connect 118 0 110 0;
#X connect 119 0 110 0;
#X connect 120 0 110 0;
#X connect 121 0 110 0;
#X connect 122 0 110 0;
#X connect 123 0 110 0;
#X connect 124 0 108 3;
#X connect 127 0 110 0;
#X connect 128 0 110 0;
#X connect 129 0 110 0;
#X connect 130 0 32 0;
#X connect 131 0 132 0;
#X connect 132 0 109 0;
#X connect 133 0 132 0;
#X connect 134 0 132 0;
#X connect 135 0 132 0;
#X connect 136 0 132 0;
#X connect 137 0 132 0;
#X connect 138 0 132 0;
#X connect 139 0 132 0;
#X connect 140 0 132 0;
#X connect 141 0 132 0;
#X connect 142 0 132 0;
#X connect 143 0 132 0;
#X connect 144 0 132 0;
#X connect 145 0 15 0;
#X connect 145 1 3 0;
#X connect 146 0 145 2;
#X connect 148 0 145 3;
#X connect 149 0 145 0;
#X connect 150 0 145 1;
#X connect 151 0 153 6;
#X connect 153 0 154 0;
#X connect 153 1 154 1;
#X connect 153 2 154 2;
#X connect 153 3 154 3;
#X connect 153 4 154 4;
#X connect 153 5 154 5;
#X connect 153 6 154 6;
#X connect 154 0 107 3;
#X connect 154 1 107 4;
#X connect 154 2 107 5;
#X connect 154 3 107 6;
#X connect 154 4 107 7;
#X connect 154 5 107 8;
#X connect 154 6 107 9;
#X connect 154 6 33 0;
#X connect 155 0 157 0;
#X connect 157 0 158 0;
#X connect 158 0 108 12;
