#N canvas 546 327 968 423 10;
#X obj 11 142 *~ 1;
#X obj 11 161 dac~;
#X obj 92 141 hsl 80 15 0 1 0 0 empty empty empty -2 -8 0 10 -262144
-1 -1 3300 1;
#X obj 12 34 *~ 64000;
#X obj 12 13 phasor~ 0.02;
#X obj 615 244 cos($v1*0.15+sin($v1*0.125)*$v1/100%10)*0.05 \;;
#X obj 12 55 expr~ ($v1%150<($v1/200%150))*0.1 \; ($v1%50)*($v1%1000<250)*(sin($v1*0.005))*0.0075
\; sin($v1*0.125)*($v1%4000<400)*0.35 \; cos($v1*0.15+sin($v1*0.125)*$v1/100%10)*0.05
\; sin($v1*0.5+sin($v1*0.25)*999)*($v1%8000>4000&&$v1%4000<500)*0.2
\;;
#X connect 0 0 1 0;
#X connect 0 0 1 1;
#X connect 2 0 0 1;
#X connect 3 0 6 0;
#X connect 4 0 3 0;
#X connect 6 0 0 0;
#X connect 6 1 0 0;
#X connect 6 2 0 0;
#X connect 6 3 0 0;
