#N canvas 381 142 889 655 10;
#X obj 167 150 mtof;
#X obj 205 200 osc~;
#X obj 275 563 dac~;
#X obj 204 57 t b b b;
#X obj 239 147 mtof;
#X obj 277 197 osc~;
#X obj 300 145 mtof;
#X obj 338 195 osc~;
#X obj 66 296 pack f f f;
#X obj 42 267 60;
#X obj 65 211 t b b b;
#X obj 66 324 unpack f f f;
#X floatatom 19 356 5 0 0 0 - - -;
#X floatatom 78 356 5 0 0 0 - - -;
#X floatatom 146 358 5 0 0 0 - - -;
#X msg 23 39 \; pd dsp \$1;
#X obj 23 14 tgl 15 0 empty empty empty 17 7 0 10 -262144 -1 -1 0 1
;
#X obj 274 263 *~;
#X obj 204 24 bng 15 250 50 0 empty empty empty 17 7 0 10 -262144 -1
-1;
#X obj 61 182 bng 15 250 50 0 empty empty empty 17 7 0 10 -262144 -1
-1;
#X obj 522 246 *~;
#X obj 521 141 vsl 15 50 0 14 0 0 empty empty empty 0 -9 0 10 -262144
-1 -1 3100 1;
#X obj 569 208 *~;
#X obj 568 111 vsl 15 50 0 9 0 0 empty empty empty 0 -9 0 10 -262144
-1 -1 2500 1;
#X obj 569 182 osc~;
#X obj 521 216 osc~;
#X obj 617 183 *~;
#X obj 614 77 vsl 15 50 0 0.5 0 0 empty empty empty 0 -9 0 10 -262144
-1 -1 2000 1;
#X obj 616 153 osc~;
#X obj 679 162 hsl 50 15 0 0.3 0 0 empty empty empty -2 -8 0 10 -262144
-1 -1 2100 1;
#X obj 182 102 44;
#X obj 223 104 47;
#X obj 261 113 50;
#X obj 18 426 osc~;
#X obj 90 423 osc~;
#X obj 151 421 osc~;
#X obj 87 489 *~;
#X obj 16 390 mtof;
#X obj 88 387 mtof;
#X obj 149 385 mtof;
#X obj 83 266 54;
#X obj 218 407 *~;
#X obj 217 302 vsl 15 50 0 22 0 0 empty empty empty 0 -9 0 10 -262144
-1 -1 1900 1;
#X obj 217 377 osc~;
#X obj 122 267 66;
#X connect 0 0 1 0;
#X connect 1 0 17 0;
#X connect 3 0 30 0;
#X connect 3 1 31 0;
#X connect 3 2 32 0;
#X connect 4 0 5 0;
#X connect 5 0 17 0;
#X connect 6 0 7 0;
#X connect 7 0 17 0;
#X connect 8 0 11 0;
#X connect 9 0 8 0;
#X connect 10 0 9 0;
#X connect 10 1 40 0;
#X connect 10 2 44 0;
#X connect 11 0 12 0;
#X connect 11 1 13 0;
#X connect 11 2 14 0;
#X connect 12 0 37 0;
#X connect 13 0 38 0;
#X connect 14 0 39 0;
#X connect 16 0 15 0;
#X connect 17 0 2 0;
#X connect 17 0 2 1;
#X connect 18 0 3 0;
#X connect 19 0 10 0;
#X connect 20 0 17 1;
#X connect 20 0 41 1;
#X connect 21 0 25 0;
#X connect 22 0 20 1;
#X connect 23 0 24 0;
#X connect 24 0 22 0;
#X connect 25 0 20 0;
#X connect 26 0 22 1;
#X connect 27 0 28 0;
#X connect 28 0 26 0;
#X connect 29 0 26 1;
#X connect 30 0 0 0;
#X connect 31 0 4 0;
#X connect 32 0 6 0;
#X connect 33 0 36 0;
#X connect 34 0 36 0;
#X connect 35 0 36 0;
#X connect 36 0 2 0;
#X connect 36 0 2 1;
#X connect 37 0 33 0;
#X connect 38 0 34 0;
#X connect 39 0 35 0;
#X connect 40 0 8 1;
#X connect 41 0 36 1;
#X connect 42 0 43 0;
#X connect 43 0 41 0;
#X connect 44 0 8 2;
