#N canvas -8 -8 1600 857 10;
#X obj 62 643 dac~;
#X obj 103 546 hsl 128 15 0 1 0 0 empty empty empty -2 -8 0 10 -262144
-1 -1 8900 1;
#X obj 60 325 osc~;
#X floatatom 60 301 5 0 0 0 - - -;
#X floatatom 109 302 5 0 0 0 - - -;
#X obj 109 322 t f f;
#X floatatom 109 475 5 0 0 0 - - -;
#X obj 60 48 hsl 128 15 0 127 0 0 empty empty empty -2 -8 0 10 -262144
-1 -1 5100 1;
#X floatatom 57 68 5 0 0 0 - - -;
#X obj 57 88 mtof;
#X floatatom 57 110 5 0 0 0 - - -;
#X obj 109 154 vsl 15 128 0 1 0 0 empty empty empty 0 -9 0 10 -262144
-1 -1 10400 1;
#X obj 61 398 *~;
#X obj 61 420 +~;
#X obj 62 517 /~;
#X obj 61 595 *~;
#X obj 109 371 +;
#X obj 169 287 * 2;
#X floatatom 169 308 5 0 0 0 - - -;
#X obj 169 328 osc~;
#X obj 169 349 *~;
#X obj 167 420 +~;
#X floatatom 221 300 5 0 0 0 - - -;
#X obj 221 320 t f f;
#X obj 221 152 vsl 15 128 0 1 0 0 empty empty empty 0 -9 0 10 -262144
-1 -1 10200 1;
#X obj 221 372 +;
#X floatatom 281 306 5 0 0 0 - - -;
#X obj 281 326 osc~;
#X obj 281 347 *~;
#X obj 280 421 +~;
#X obj 281 285 * 3;
#X obj 221 393 t b f;
#X floatatom 341 299 5 0 0 0 - - -;
#X obj 341 319 t f f;
#X obj 341 151 vsl 15 128 0 1 0 0 empty empty empty 0 -9 0 10 -262144
-1 -1 10100 1;
#X obj 341 371 +;
#X obj 341 392 t b f;
#X connect 1 0 15 1;
#X connect 2 0 12 0;
#X connect 3 0 2 0;
#X connect 4 0 5 0;
#X connect 5 0 16 0;
#X connect 5 1 12 1;
#X connect 6 0 14 1;
#X connect 7 0 8 0;
#X connect 8 0 9 0;
#X connect 9 0 10 0;
#X connect 10 0 3 0;
#X connect 10 0 17 0;
#X connect 10 0 30 0;
#X connect 11 0 4 0;
#X connect 12 0 13 0;
#X connect 13 0 14 0;
#X connect 14 0 15 0;
#X connect 15 0 0 0;
#X connect 15 0 0 1;
#X connect 16 0 6 0;
#X connect 17 0 18 0;
#X connect 18 0 19 0;
#X connect 19 0 20 0;
#X connect 20 0 21 0;
#X connect 21 0 13 1;
#X connect 22 0 23 0;
#X connect 23 0 25 0;
#X connect 23 1 21 1;
#X connect 24 0 22 0;
#X connect 25 0 31 0;
#X connect 26 0 27 0;
#X connect 27 0 28 0;
#X connect 28 0 29 0;
#X connect 29 0 21 1;
#X connect 30 0 26 0;
#X connect 31 0 16 0;
#X connect 31 1 16 1;
#X connect 32 0 33 0;
#X connect 33 0 35 0;
#X connect 33 1 29 1;
#X connect 34 0 32 0;
#X connect 35 0 36 0;
#X connect 36 0 25 0;
#X connect 36 1 25 1;
